<?xml version="1.0" encoding="UTF-8"?>
<!DOCTYPE svg PUBLIC "-//W3C//DTD SVG 1.1//EN" "http://www.w3.org/Graphics/SVG/1.1/DTD/svg11.dtd">
<svg xmlns="http://www.w3.org/2000/svg" version="1.1" width="433px" height="577px" style="shape-rendering:geometricPrecision; text-rendering:geometricPrecision; image-rendering:optimizeQuality; fill-rule:evenodd; clip-rule:evenodd" xmlns:xlink="http://www.w3.org/1999/xlink">
<g><path style="opacity:0.059" fill="#daeaf3" d="M 55.5,72.5 C 54.8826,72.3893 54.3826,72.056 54,71.5C 53.79,73.0581 53.29,74.3915 52.5,75.5C 52.5,73.5 52.5,71.5 52.5,69.5C 53.5,69.5 54.5,69.5 55.5,69.5C 55.5,70.5 55.5,71.5 55.5,72.5 Z"/></g>
<g><path style="opacity:0.361" fill="#b6ddf1" d="M 52.5,79.5 C 52.1743,87.6841 52.5076,95.6841 53.5,103.5C 53.5,106.167 53.5,108.833 53.5,111.5C 52.0201,105.231 51.3534,98.7314 51.5,92C 51.501,87.6528 51.8343,83.4861 52.5,79.5 Z"/></g>
<g><path style="opacity:1" fill="#67a1c7" d="M 55.5,72.5 C 58.1257,79.0992 60.7924,85.7659 63.5,92.5C 61.9028,91.9095 60.5695,90.9095 59.5,89.5C 58.7213,85.9429 57.388,82.6096 55.5,79.5C 53.9815,87.4258 53.3148,95.4258 53.5,103.5C 52.5076,95.6841 52.1743,87.6841 52.5,79.5C 52.5,78.1667 52.5,76.8333 52.5,75.5C 53.29,74.3915 53.79,73.0581 54,71.5C 54.3826,72.056 54.8826,72.3893 55.5,72.5 Z"/></g>
<g><path style="opacity:0.043" fill="#e4f3fb" d="M 14.5,99.5 C 13.71,98.3915 13.21,97.0581 13,95.5C 12.6174,96.056 12.1174,96.3893 11.5,96.5C 11.8212,94.9519 12.8212,94.2852 14.5,94.5C 14.5,96.1667 14.5,97.8333 14.5,99.5 Z"/></g>
<g><path style="opacity:0.298" fill="#c1dbf1" d="M 69.5,104.5 C 70.9063,104.973 71.573,105.973 71.5,107.5C 70.0937,107.027 69.427,106.027 69.5,104.5 Z"/></g>
<g><path style="opacity:1" fill="#6aa6cc" d="M 14.5,99.5 C 15.8152,104.095 16.8152,108.761 17.5,113.5C 14.9758,110.761 13.9758,107.428 14.5,103.5C 13.5,103.5 12.5,103.5 11.5,103.5C 10.7551,112.904 8.75515,121.904 5.5,130.5C 5.5,129.167 5.5,127.833 5.5,126.5C 6.35068,116.247 8.35068,106.247 11.5,96.5C 12.1174,96.3893 12.6174,96.056 13,95.5C 13.21,97.0581 13.71,98.3915 14.5,99.5 Z"/></g>
<g><path style="opacity:1" fill="#8bbcdc" d="M 53.5,111.5 C 54.7498,111.577 55.5831,112.244 56,113.5C 56.7267,119.525 57.5601,125.525 58.5,131.5C 55.6413,125.234 53.9747,118.567 53.5,111.5 Z"/></g>
<g><path style="opacity:1" fill="#6ea8cf" d="M 63.5,92.5 C 66.0078,96.1822 68.0078,100.182 69.5,104.5C 69.427,106.027 70.0937,107.027 71.5,107.5C 74.7483,112.326 77.7483,117.326 80.5,122.5C 79.1805,121.058 77.5138,120.392 75.5,120.5C 75.5,118.833 75.5,117.167 75.5,115.5C 74.5,115.5 73.5,115.5 72.5,115.5C 72.6068,111.714 71.1068,108.714 68,106.5C 67.0022,109.028 66.1689,109.028 65.5,106.5C 65.7556,105.311 66.0889,104.144 66.5,103C 64.7853,99.6909 63.7853,96.1909 63.5,92.5 Z"/></g>
<g><path style="opacity:0.09" fill="#f9dbdb" d="M 232.5,115.5 C 231.883,115.389 231.383,115.056 231,114.5C 230.722,115.416 230.222,116.082 229.5,116.5C 229.5,115.5 229.5,114.5 229.5,113.5C 231.179,113.285 232.179,113.952 232.5,115.5 Z"/></g>
<g><path style="opacity:0.831" fill="#94c4dc" d="M 17.5,113.5 C 18.871,115.936 19.871,118.603 20.5,121.5C 18.3455,119.383 17.3455,116.716 17.5,113.5 Z"/></g>
<g><path style="opacity:0.875" fill="#e3a1a2" d="M 229.5,117.5 C 229.23,121.358 227.897,124.691 225.5,127.5C 226.267,123.851 227.6,120.518 229.5,117.5 Z"/></g>
<g><path style="opacity:1" fill="#3e95cf" d="M 63.5,92.5 C 63.7853,96.1909 64.7853,99.6909 66.5,103C 66.0889,104.144 65.7556,105.311 65.5,106.5C 66.1689,109.028 67.0022,109.028 68,106.5C 71.1068,108.714 72.6068,111.714 72.5,115.5C 73.5,115.5 74.5,115.5 75.5,115.5C 75.5,117.167 75.5,118.833 75.5,120.5C 77.5138,120.392 79.1805,121.058 80.5,122.5C 83.8827,126.553 86.8827,130.886 89.5,135.5C 90.0798,137.749 91.4131,139.415 93.5,140.5C 94.5114,142.372 95.3448,144.372 96,146.5C 98.5,149.5 101,152.5 103.5,155.5C 100.761,159.027 101.594,160.027 106,158.5C 106.5,158.833 107,159.167 107.5,159.5C 106.32,163.672 107.82,165.005 112,163.5C 113.506,165.174 115.339,166.174 117.5,166.5C 118.167,166.833 118.833,167.167 119.5,167.5C 119.738,169.404 120.738,170.738 122.5,171.5C 122.343,172.873 122.51,174.207 123,175.5C 124.816,176.329 126.649,177.163 128.5,178C 129.337,179.011 129.67,180.178 129.5,181.5C 131.199,181.34 132.866,181.506 134.5,182C 135.952,185.621 138.618,187.454 142.5,187.5C 142.5,188.5 142.5,189.5 142.5,190.5C 145.675,192.13 149.009,193.63 152.5,195C 154.01,197.755 156.343,198.921 159.5,198.5C 160.736,201.621 163.069,202.955 166.5,202.5C 169.426,205.317 172.426,208.151 175.5,211C 181.714,212.219 187.714,214.052 193.5,216.5C 193.881,217.931 194.881,218.764 196.5,219C 195.833,219.667 195.167,220.333 194.5,221C 196.527,221.498 198.527,221.331 200.5,220.5C 206.527,222.841 212.527,225.174 218.5,227.5C 223.327,229.987 227.993,232.654 232.5,235.5C 234.514,237.845 236.847,239.845 239.5,241.5C 241.239,244.243 243.573,246.243 246.5,247.5C 248.766,251.436 251.766,254.769 255.5,257.5C 256.757,260.427 258.757,262.761 261.5,264.5C 261.5,265.167 261.5,265.833 261.5,266.5C 262.343,269.516 263.843,272.183 266,274.5C 266.671,275.252 267.504,275.586 268.5,275.5C 268.755,277.967 269.755,279.967 271.5,281.5C 273.22,284.889 273.887,288.556 273.5,292.5C 272.732,293.263 272.232,294.263 272,295.5C 271.617,294.944 271.117,294.611 270.5,294.5C 270.027,293.094 269.027,292.427 267.5,292.5C 267.027,291.094 266.027,290.427 264.5,290.5C 262.046,289.773 259.713,288.773 257.5,287.5C 256.504,286.335 255.171,285.668 253.5,285.5C 250.885,286.269 248.219,286.603 245.5,286.5C 245.5,287.833 245.5,289.167 245.5,290.5C 243.712,290.215 242.045,290.548 240.5,291.5C 240.121,293.213 239.121,294.213 237.5,294.5C 235.647,293.876 233.98,294.543 232.5,296.5C 232.846,297.696 233.346,297.696 234,296.5C 234.749,297.635 234.583,298.635 233.5,299.5C 231.172,297.2 229.005,297.2 227,299.5C 226.684,302.187 227.684,302.853 230,301.5C 231.059,301.63 231.892,302.13 232.5,303C 230.945,305.555 228.778,307.388 226,308.5C 225.502,310.527 225.669,312.527 226.5,314.5C 225.353,316.731 224.353,319.065 223.5,321.5C 221.721,335.401 222.387,349.068 225.5,362.5C 226.001,364.655 227.001,366.322 228.5,367.5C 228.5,368.167 228.833,368.5 229.5,368.5C 229.62,374.386 231.62,379.386 235.5,383.5C 236.876,388.368 237.71,393.368 238,398.5C 239.183,397.269 240.349,397.269 241.5,398.5C 240.388,399.265 239.721,400.265 239.5,401.5C 236.95,403.077 234.95,405.077 233.5,407.5C 231.302,407.409 230.969,408.075 232.5,409.5C 231.833,409.5 231.167,409.5 230.5,409.5C 228.143,409.337 225.81,409.503 223.5,410C 224.5,410.333 225.5,410.667 226.5,411C 224.833,411.333 223.167,411.667 221.5,412C 221.833,412.333 222.167,412.667 222.5,413C 221.027,413.71 220.36,414.876 220.5,416.5C 218.473,416.338 216.473,416.505 214.5,417C 215.337,418.011 215.67,419.178 215.5,420.5C 213.2,422.984 210.533,424.984 207.5,426.5C 204.692,426.693 202.025,427.36 199.5,428.5C 199.881,430.942 199.214,431.609 197.5,430.5C 196.304,430.846 196.304,431.346 197.5,432C 196.207,432.49 194.873,432.657 193.5,432.5C 193.5,433.833 193.5,435.167 193.5,436.5C 191.058,436.646 190.391,435.813 191.5,434C 190.207,433.51 188.873,433.343 187.5,433.5C 188.075,429.845 187.075,426.845 184.5,424.5C 184.41,422.304 184.077,420.137 183.5,418C 183.316,416.624 182.649,415.791 181.5,415.5C 180.207,412.321 179.54,408.988 179.5,405.5C 179.5,403.5 179.5,401.5 179.5,399.5C 177.138,377.151 177.138,354.818 179.5,332.5C 179.5,329.833 179.5,327.167 179.5,324.5C 179.5,323.833 179.5,323.167 179.5,322.5C 181.04,320.162 181.706,317.495 181.5,314.5C 181.5,314.167 181.5,313.833 181.5,313.5C 183.163,311.562 183.829,309.228 183.5,306.5C 183.5,306.167 183.5,305.833 183.5,305.5C 184.924,303.485 185.59,301.152 185.5,298.5C 185.41,295.848 186.076,293.515 187.5,291.5C 189.163,289.562 189.829,287.228 189.5,284.5C 190.365,281.9 191.032,279.233 191.5,276.5C 191.372,274.045 190.372,272.045 188.5,270.5C 187.415,268.413 185.749,267.08 183.5,266.5C 181.973,266.573 180.973,265.906 180.5,264.5C 178.302,259.11 174.302,256.11 168.5,255.5C 162.959,252.564 157.959,248.897 153.5,244.5C 150.833,238.814 146.499,235.481 140.5,234.5C 139.415,232.413 137.749,231.08 135.5,230.5C 134.089,228.086 132.089,226.419 129.5,225.5C 128.5,225.167 127.833,224.5 127.5,223.5C 122.645,216.632 116.645,211.298 109.5,207.5C 109.112,205.315 108.112,203.482 106.5,202C 107.148,200.56 107.481,199.06 107.5,197.5C 106.022,197.762 104.689,197.429 103.5,196.5C 103.467,195.011 102.967,193.678 102,192.5C 101.586,192.957 101.086,193.291 100.5,193.5C 99.1072,192.137 97.4405,191.304 95.5,191C 94.9366,187.603 92.9366,185.77 89.5,185.5C 88.5448,183.254 87.8782,180.921 87.5,178.5C 86.4121,174.674 85.0788,171.008 83.5,167.5C 85.1092,167.906 86.4425,167.906 87.5,167.5C 85.8208,166.218 83.9874,165.218 82,164.5C 81.6667,164.833 81.3333,165.167 81,165.5C 80.0855,161.815 79.4189,162.148 79,166.5C 78.2689,164.101 77.1022,161.935 75.5,160C 76.448,159.517 77.448,159.351 78.5,159.5C 78.5599,155.673 77.3932,155.006 75,157.5C 75.9881,155.08 75.6548,152.747 74,150.5C 73.3162,151.784 73.4829,152.951 74.5,154C 72.5273,154.495 70.5273,154.662 68.5,154.5C 68.0368,149.326 66.0368,144.992 62.5,141.5C 62.1277,137.703 60.7943,134.37 58.5,131.5C 57.5601,125.525 56.7267,119.525 56,113.5C 55.5831,112.244 54.7498,111.577 53.5,111.5C 53.5,108.833 53.5,106.167 53.5,103.5C 53.3148,95.4258 53.9815,87.4258 55.5,79.5C 57.388,82.6096 58.7213,85.9429 59.5,89.5C 60.5695,90.9095 61.9028,91.9095 63.5,92.5 Z"/></g>
<g><path style="opacity:0.863" fill="#e4a1a3" d="M 233.5,119.5 C 235.267,121.792 236.267,124.458 236.5,127.5C 234.415,125.316 233.415,122.649 233.5,119.5 Z"/></g>
<g><path style="opacity:1" fill="#c14b4a" d="M 232.5,115.5 C 233.234,116.708 233.567,118.041 233.5,119.5C 232.85,119.196 232.183,118.863 231.5,118.5C 230.499,123.812 228.499,128.478 225.5,132.5C 225.5,131.167 225.5,129.833 225.5,128.5C 225.5,128.167 225.5,127.833 225.5,127.5C 227.897,124.691 229.23,121.358 229.5,117.5C 229.5,117.167 229.5,116.833 229.5,116.5C 230.222,116.082 230.722,115.416 231,114.5C 231.383,115.056 231.883,115.389 232.5,115.5 Z"/></g>
<g><path style="opacity:0.804" fill="#e59f9f" d="M 236.5,127.5 C 237.871,129.936 238.871,132.603 239.5,135.5C 237.345,133.383 236.345,130.716 236.5,127.5 Z"/></g>
<g><path style="opacity:0.839" fill="#dc9898" d="M 225.5,128.5 C 225.5,129.833 225.5,131.167 225.5,132.5C 224.833,132.833 224.167,133.167 223.5,133.5C 223.796,131.597 224.463,129.93 225.5,128.5 Z"/></g>
<g><path style="opacity:0.353" fill="#b3d8ec" d="M 58.5,131.5 C 60.7943,134.37 62.1277,137.703 62.5,141.5C 60.5968,138.47 59.2635,135.137 58.5,131.5 Z"/></g>
<g><path style="opacity:0.714" fill="#e8b1b0" d="M 223.5,133.5 C 223.5,134.833 223.5,136.167 223.5,137.5C 222.833,138.167 222.167,138.833 221.5,139.5C 221.595,137.214 222.262,135.214 223.5,133.5 Z"/></g>
<g><path style="opacity:0.592" fill="#a6cadf" d="M 89.5,135.5 C 91.5869,136.585 92.9202,138.251 93.5,140.5C 91.4131,139.415 90.0798,137.749 89.5,135.5 Z"/></g>
<g><path style="opacity:0.686" fill="#eaacad" d="M 239.5,135.5 C 241.204,138.939 242.538,142.605 243.5,146.5C 241.01,143.374 239.677,139.708 239.5,135.5 Z"/></g>
<g><path style="opacity:0.792" fill="#e1a69e" d="M 221.5,139.5 C 221.88,141.698 221.213,143.365 219.5,144.5C 219.796,142.597 220.463,140.93 221.5,139.5 Z"/></g>
<g><path style="opacity:1" fill="#77aed2" d="M 20.5,121.5 C 26.0928,135.352 32.7594,148.686 40.5,161.5C 39.8333,161.167 39.1667,160.833 38.5,160.5C 34.52,156.207 31.8533,151.207 30.5,145.5C 29.5,145.5 28.5,145.5 27.5,145.5C 27.6602,143.801 27.4935,142.134 27,140.5C 26.0656,137.12 24.3989,134.12 22,131.5C 21.3897,128.173 20.8897,124.839 20.5,121.5 Z"/></g>
<g><path style="opacity:0.894" fill="#93c0db" d="M 62.5,141.5 C 66.0368,144.992 68.0368,149.326 68.5,154.5C 65.7105,150.584 63.7105,146.251 62.5,141.5 Z"/></g>
<g><path style="opacity:0.69" fill="#ecadb1" d="M 218.5,147.5 C 218.741,149.898 218.074,151.898 216.5,153.5C 216.595,151.214 217.262,149.214 218.5,147.5 Z"/></g>
<g><path style="opacity:0.867" fill="#da9495" d="M 243.5,147.5 C 244.537,148.93 245.204,150.597 245.5,152.5C 243.787,151.365 243.12,149.698 243.5,147.5 Z"/></g>
<g><path style="opacity:1" fill="#c44e50" d="M 223.5,137.5 C 222.802,144.864 220.469,151.53 216.5,157.5C 216.5,156.167 216.5,154.833 216.5,153.5C 218.074,151.898 218.741,149.898 218.5,147.5C 218.263,146.209 218.596,145.209 219.5,144.5C 221.213,143.365 221.88,141.698 221.5,139.5C 222.167,138.833 222.833,138.167 223.5,137.5 Z"/></g>
<g><path style="opacity:1" fill="#3e96cf" d="M 17.5,113.5 C 17.3455,116.716 18.3455,119.383 20.5,121.5C 20.8897,124.839 21.3897,128.173 22,131.5C 24.3989,134.12 26.0656,137.12 27,140.5C 27.4935,142.134 27.6602,143.801 27.5,145.5C 28.5,145.5 29.5,145.5 30.5,145.5C 31.8533,151.207 34.52,156.207 38.5,160.5C 38.1193,161.931 37.1193,162.764 35.5,163C 37.9105,163.198 39.5772,164.364 40.5,166.5C 39.4174,168.875 39.4174,171.208 40.5,173.5C 41.2811,172.271 41.7811,170.938 42,169.5C 43.8012,172.897 46.3012,174.563 49.5,174.5C 51.2624,175.262 52.2624,176.596 52.5,178.5C 53.0798,180.749 54.4131,182.415 56.5,183.5C 57.0798,185.749 58.4131,187.415 60.5,188.5C 61.5,188.833 62.1667,189.5 62.5,190.5C 63.7573,193.427 65.7573,195.761 68.5,197.5C 72.8333,201.5 77.1667,205.5 81.5,209.5C 81.5,211.5 82.5,212.5 84.5,212.5C 84.8511,216.544 87.0177,218.878 91,219.5C 91.49,220.793 91.6567,222.127 91.5,223.5C 94.8125,224.793 98.1458,226.127 101.5,227.5C 101.973,228.906 102.973,229.573 104.5,229.5C 108.896,232.025 112.896,235.025 116.5,238.5C 116.842,241.355 118.509,242.855 121.5,243C 123.243,245.957 125.91,247.457 129.5,247.5C 131.379,250.258 134.046,251.925 137.5,252.5C 137.833,252.5 138.167,252.5 138.5,252.5C 139.203,255.542 141.203,257.209 144.5,257.5C 146.461,261.007 149.461,262.34 153.5,261.5C 154.028,262.721 154.695,263.887 155.5,265C 157.608,265.36 159.608,266.027 161.5,267C 161.043,267.414 160.709,267.914 160.5,268.5C 165.025,270.435 169.691,271.768 174.5,272.5C 174.967,275.297 176.633,276.631 179.5,276.5C 179.533,280.869 179.2,285.202 178.5,289.5C 178.737,290.791 178.404,291.791 177.5,292.5C 176.43,295.059 174.93,297.392 173,299.5C 172.503,302.146 172.336,304.813 172.5,307.5C 171.542,307.953 170.708,308.619 170,309.5C 169.71,311.952 169.044,314.285 168,316.5C 167.692,315.692 167.192,315.025 166.5,314.5C 165.735,318.325 165.068,322.158 164.5,326C 166.068,333.685 165.401,341.185 162.5,348.5C 163.573,352.084 164.24,355.75 164.5,359.5C 163.716,368.35 163.383,377.184 163.5,386C 163.833,386.833 164.167,387.667 164.5,388.5C 165.298,386.922 165.798,385.256 166,383.5C 166.315,388.838 166.148,394.172 165.5,399.5C 166.5,399.5 167.5,399.5 168.5,399.5C 168.335,402.85 168.502,406.183 169,409.5C 170.459,412.442 171.292,415.609 171.5,419C 172.022,421.731 173.356,423.898 175.5,425.5C 176.789,429.044 178.456,432.377 180.5,435.5C 181.114,439.135 181.448,442.802 181.5,446.5C 181.5,447.167 181.167,447.5 180.5,447.5C 179.127,447.343 177.793,447.51 176.5,448C 177.598,448.77 177.598,449.603 176.5,450.5C 174.5,450.5 172.5,450.5 170.5,450.5C 170.657,451.873 170.49,453.207 170,454.5C 165.325,452.666 163.492,454.333 164.5,459.5C 162.5,459.5 160.5,459.5 158.5,459.5C 158.5,460.5 158.5,461.5 158.5,462.5C 153.442,462 151.776,464 153.5,468.5C 151.409,468.318 149.409,468.652 147.5,469.5C 146.614,470.325 146.281,471.325 146.5,472.5C 142.473,472.006 139.473,473.506 137.5,477C 136.552,477.483 135.552,477.649 134.5,477.5C 134.5,478.833 134.5,480.167 134.5,481.5C 132.833,481.5 131.167,481.5 129.5,481.5C 129.33,482.822 129.663,483.989 130.5,485C 128.58,486.122 126.58,486.956 124.5,487.5C 124.5,488.5 124.5,489.5 124.5,490.5C 122.54,492.156 120.54,493.823 118.5,495.5C 117.127,495.343 115.793,495.51 114.5,496C 111.869,498.696 108.703,500.529 105,501.5C 104.095,495.093 102.928,488.759 101.5,482.5C 101.538,479.813 102.538,479.146 104.5,480.5C 105.59,479.273 106.924,478.44 108.5,478C 107.687,476.686 106.687,475.519 105.5,474.5C 106.63,473.378 107.297,472.044 107.5,470.5C 107.5,469.833 107.5,469.167 107.5,468.5C 110.833,464.5 114.5,460.833 118.5,457.5C 122.234,454.769 125.234,451.436 127.5,447.5C 129.833,444.5 132.5,441.833 135.5,439.5C 136.645,438.207 136.311,437.041 134.5,436C 133.207,435.51 131.873,435.343 130.5,435.5C 130.027,434.094 129.027,433.427 127.5,433.5C 126.508,433.672 125.842,433.338 125.5,432.5C 124.594,430.583 123.261,428.917 121.5,427.5C 117.803,426.298 114.47,424.464 111.5,422C 116.817,418.441 116.484,417.107 110.5,418C 108.941,419.756 107.274,419.756 105.5,418C 106.167,417.667 106.833,417.333 107.5,417C 105.336,416.63 103.336,415.796 101.5,414.5C 100.548,412.955 100.215,411.288 100.5,409.5C 96.85,410.675 93.1834,410.675 89.5,409.5C 88.4769,405.295 85.8102,403.295 81.5,403.5C 80.0892,401.086 78.0892,399.419 75.5,398.5C 74.4154,396.413 72.7488,395.08 70.5,394.5C 69.5,394.167 68.8333,393.5 68.5,392.5C 67.4154,390.413 65.7488,389.08 63.5,388.5C 63.6567,387.127 63.49,385.793 63,384.5C 57.0446,378.545 51.0446,372.545 45,366.5C 44.51,365.207 44.3433,363.873 44.5,362.5C 42.8333,362.5 41.1667,362.5 39.5,362.5C 39.573,360.973 38.9063,359.973 37.5,359.5C 36.9812,355.657 34.9812,352.99 31.5,351.5C 30.1103,350.101 29.1103,348.434 28.5,346.5C 28.573,344.973 27.9063,343.973 26.5,343.5C 24.5832,340.669 22.9166,337.669 21.5,334.5C 21.2274,328.973 19.5607,323.973 16.5,319.5C 16.9842,314.643 17.6509,309.809 18.5,305C 17.6667,302.5 16.1667,302 14,303.5C 13.5045,301.527 13.3379,299.527 13.5,297.5C 12.5,297.5 11.5,297.5 10.5,297.5C 10.3379,295.473 10.5045,293.473 11,291.5C 12.0915,293.117 13.5915,294.117 15.5,294.5C 16.1667,294.833 16.8333,295.167 17.5,295.5C 17.7376,297.404 18.7376,298.738 20.5,299.5C 20.2639,302.226 21.0972,304.559 23,306.5C 25.6971,308.7 28.1971,311.033 30.5,313.5C 32.1667,314.833 33.8333,316.167 35.5,317.5C 37.8333,319.167 39.8333,321.167 41.5,323.5C 42.1667,324.5 42.8333,325.5 43.5,326.5C 45.4948,330.012 48.4948,332.512 52.5,334C 53.2191,336.556 54.8858,337.723 57.5,337.5C 57.8333,337.5 58.1667,337.5 58.5,337.5C 59.1299,340.705 61.1299,342.371 64.5,342.5C 64.6282,344.09 65.2949,345.423 66.5,346.5C 72.5342,349.466 77.8675,353.3 82.5,358C 87.2753,361.344 92.6087,363.511 98.5,364.5C 98.8333,364.5 99.1667,364.5 99.5,364.5C 100.502,366.011 101.169,367.678 101.5,369.5C 104.216,371.184 107.216,372.35 110.5,373C 109.5,373.333 108.5,373.667 107.5,374C 109.536,375.306 111.536,375.473 113.5,374.5C 115.568,374.967 117.568,375.634 119.5,376.5C 120.386,377.325 120.719,378.325 120.5,379.5C 125.036,379.433 129.369,380.099 133.5,381.5C 133.5,382.5 133.5,383.5 133.5,384.5C 135.144,384.714 136.644,384.38 138,383.5C 138.231,377.629 138.731,371.796 139.5,366C 137.532,364.342 135.532,362.675 133.5,361C 130.518,360.502 127.518,360.335 124.5,360.5C 115.732,357.282 107.399,353.282 99.5,348.5C 98.9517,345.916 97.285,344.916 94.5,345.5C 94.5858,344.504 94.2524,343.671 93.5,343C 90.7449,341.047 87.7449,339.88 84.5,339.5C 83.5084,339.672 82.8417,339.338 82.5,338.5C 82.0269,337.094 81.0269,336.427 79.5,336.5C 77.5514,332.192 74.2181,329.859 69.5,329.5C 68.2814,325.62 65.6147,323.62 61.5,323.5C 60.4154,321.413 58.7488,320.08 56.5,319.5C 55.0892,317.086 53.0892,315.419 50.5,314.5C 48.1667,313.5 46.5,311.833 45.5,309.5C 44.0892,307.086 42.0892,305.419 39.5,304.5C 38.1667,302.833 36.8333,301.167 35.5,299.5C 35.6107,298.883 35.944,298.383 36.5,298C 32.0027,293.162 27.836,287.995 24,282.5C 23.1376,280.913 22.4709,279.246 22,277.5C 21.6667,278.167 21.3333,278.833 21,279.5C 20.0266,277.608 19.3599,275.608 19,273.5C 17.9887,272.663 16.8221,272.33 15.5,272.5C 15.5,272.167 15.5,271.833 15.5,271.5C 14.3868,265.273 11.7202,259.94 7.5,255.5C 4.48093,241.163 2.1476,226.663 0.5,212C 0.666667,209.833 0.833333,207.667 1,205.5C 1.30762,204.692 1.80762,204.025 2.5,203.5C 3.83997,204.867 5.17331,206.2 6.5,207.5C 5.38619,212.893 6.88619,217.226 11,220.5C 11.1922,222.577 11.6922,224.577 12.5,226.5C 13.1924,225.975 13.6924,225.308 14,224.5C 13.6642,228.144 15.1642,230.477 18.5,231.5C 19.8539,235.032 21.8539,238.198 24.5,241C 22.7554,242.692 22.4221,244.525 23.5,246.5C 24.3857,245.675 24.719,244.675 24.5,243.5C 25.8333,243.5 27.1667,243.5 28.5,243.5C 29.5,243.833 30.1667,244.5 30.5,245.5C 30.7329,247.062 31.3995,248.395 32.5,249.5C 36.4253,254.103 40.4253,258.769 44.5,263.5C 46.0754,264.456 47.742,265.123 49.5,265.5C 53.7921,268.457 57.7921,271.79 61.5,275.5C 61.5858,276.496 61.2524,277.329 60.5,278C 65.339,281.057 70.339,283.89 75.5,286.5C 77.4113,287.075 79.078,288.075 80.5,289.5C 81.1874,293.352 83.5208,295.019 87.5,294.5C 87.5,295.5 87.5,296.5 87.5,297.5C 90.4359,298.406 93.4359,299.072 96.5,299.5C 97.927,301.772 99.5937,303.939 101.5,306C 103.618,306.26 105.284,307.26 106.5,309C 113.421,311.45 120.421,313.617 127.5,315.5C 127.863,317.777 128.863,318.444 130.5,317.5C 132.523,319.173 134.856,319.84 137.5,319.5C 138.209,320.404 139.209,320.737 140.5,320.5C 140.5,315.833 140.5,311.167 140.5,306.5C 139.5,306.5 138.5,306.5 137.5,306.5C 134.378,305.439 131.378,304.105 128.5,302.5C 128.027,301.094 127.027,300.427 125.5,300.5C 121.182,299.008 117.182,297.008 113.5,294.5C 109.496,290.479 105.496,286.479 101.5,282.5C 97.1388,280.978 92.8055,279.645 88.5,278.5C 84.2679,276.6 80.6012,273.933 77.5,270.5C 76.4154,268.413 74.7488,267.08 72.5,266.5C 71.4154,264.413 69.7488,263.08 67.5,262.5C 66.5,262.167 65.8333,261.5 65.5,260.5C 64.0892,258.086 62.0892,256.419 59.5,255.5C 58.8333,252.833 57.1667,251.167 54.5,250.5C 53.7689,248.251 52.7689,246.084 51.5,244C 52.5472,242.422 52.5472,240.922 51.5,239.5C 50.5745,240.641 49.7412,240.641 49,239.5C 48.3333,240.167 47.6667,240.833 47,241.5C 46.7638,239.236 46.2638,237.069 45.5,235C 44.2559,234.544 43.4226,235.044 43,236.5C 42.3292,235.748 41.4959,235.414 40.5,235.5C 36.7376,232.071 33.7376,228.071 31.5,223.5C 31.6567,222.127 31.49,220.793 31,219.5C 29.2443,217.638 27.7443,215.638 26.5,213.5C 25.5713,212.311 25.238,210.978 25.5,209.5C 24.5,209.5 23.5,209.5 22.5,209.5C 22.0536,205.302 21.0536,201.302 19.5,197.5C 18.5,197.5 17.5,197.5 16.5,197.5C 15.5292,191.996 14.0292,186.662 12,181.5C 11.0418,176.877 10.3751,172.21 10,167.5C 8.52524,164.878 7.35857,162.212 6.5,159.5C 5.57852,149.873 5.24519,140.206 5.5,130.5C 8.75515,121.904 10.7551,112.904 11.5,103.5C 12.5,103.5 13.5,103.5 14.5,103.5C 13.9758,107.428 14.9758,110.761 17.5,113.5 Z"/></g>
<g><path style="opacity:0.725" fill="#e6afad" d="M 245.5,152.5 C 246.537,153.93 247.204,155.597 247.5,157.5C 245.787,156.365 245.12,154.698 245.5,152.5 Z"/></g>
<g><path style="opacity:0.804" fill="#df9f9b" d="M 216.5,153.5 C 216.5,154.833 216.5,156.167 216.5,157.5C 215.857,159.076 214.857,160.41 213.5,161.5C 214.129,158.603 215.129,155.936 216.5,153.5 Z"/></g>
<g><path style="opacity:0.416" fill="#b5daec" d="M 5.5,126.5 C 5.5,127.833 5.5,129.167 5.5,130.5C 5.24519,140.206 5.57852,149.873 6.5,159.5C 6.5,161.5 6.5,163.5 6.5,165.5C 4.97778,158.061 4.31112,150.394 4.5,142.5C 4.50061,136.989 4.83394,131.656 5.5,126.5 Z"/></g>
<g><path style="opacity:1" fill="#599dca" d="M 93.5,140.5 C 101.104,149.441 109.104,158.108 117.5,166.5C 115.339,166.174 113.506,165.174 112,163.5C 107.82,165.005 106.32,163.672 107.5,159.5C 107,159.167 106.5,158.833 106,158.5C 101.594,160.027 100.761,159.027 103.5,155.5C 101,152.5 98.5,149.5 96,146.5C 95.3448,144.372 94.5114,142.372 93.5,140.5 Z"/></g>
<g><path style="opacity:0.824" fill="#e29d9f" d="M 247.5,158.5 C 248.537,159.93 249.204,161.597 249.5,163.5C 247.787,162.365 247.12,160.698 247.5,158.5 Z"/></g>
<g><path style="opacity:1" fill="#509bcc" d="M 87.5,178.5 C 86.1667,178.167 84.8333,177.833 83.5,177.5C 77.7669,170.382 72.7669,162.716 68.5,154.5C 70.5273,154.662 72.5273,154.495 74.5,154C 73.4829,152.951 73.3162,151.784 74,150.5C 75.6548,152.747 75.9881,155.08 75,157.5C 77.3932,155.006 78.5599,155.673 78.5,159.5C 77.448,159.351 76.448,159.517 75.5,160C 77.1022,161.935 78.2689,164.101 79,166.5C 79.4189,162.148 80.0855,161.815 81,165.5C 81.3333,165.167 81.6667,164.833 82,164.5C 83.9874,165.218 85.8208,166.218 87.5,167.5C 86.4425,167.906 85.1092,167.906 83.5,167.5C 85.0788,171.008 86.4121,174.674 87.5,178.5 Z"/></g>
<g><path style="opacity:0.91" fill="#e39d9b" d="M 213.5,162.5 C 213.23,166.358 211.897,169.691 209.5,172.5C 210.267,168.851 211.6,165.518 213.5,162.5 Z"/></g>
<g><path style="opacity:0.671" fill="#ebb6b3" d="M 249.5,163.5 C 250.871,165.936 251.871,168.603 252.5,171.5C 250.345,169.383 249.345,166.716 249.5,163.5 Z"/></g>
<g><path style="opacity:1" fill="#5a9ecc" d="M 38.5,160.5 C 39.1667,160.833 39.8333,161.167 40.5,161.5C 43.8827,165.553 46.8827,169.886 49.5,174.5C 46.3012,174.563 43.8012,172.897 42,169.5C 41.7811,170.938 41.2811,172.271 40.5,173.5C 39.4174,171.208 39.4174,168.875 40.5,166.5C 39.5772,164.364 37.9105,163.198 35.5,163C 37.1193,162.764 38.1193,161.931 38.5,160.5 Z"/></g>
<g><path style="opacity:0.514" fill="#c5dfea" d="M 119.5,167.5 C 121.167,168.5 122.5,169.833 123.5,171.5C 123.167,171.5 122.833,171.5 122.5,171.5C 120.738,170.738 119.738,169.404 119.5,167.5 Z"/></g>
<g><path style="opacity:1" fill="#6ca7ce" d="M 6.5,159.5 C 7.35857,162.212 8.52524,164.878 10,167.5C 10.3751,172.21 11.0418,176.877 12,181.5C 14.0292,186.662 15.5292,191.996 16.5,197.5C 11.3867,187.488 8.05341,176.821 6.5,165.5C 6.5,163.5 6.5,161.5 6.5,159.5 Z"/></g>
<g><path style="opacity:0.804" fill="#df9c9c" d="M 252.5,172.5 C 253.871,174.936 254.871,177.603 255.5,180.5C 254.143,179.41 253.143,178.076 252.5,176.5C 252.5,175.167 252.5,173.833 252.5,172.5 Z"/></g>
<g><path style="opacity:1" fill="#81b3d0" d="M 83.5,177.5 C 84.8333,177.833 86.1667,178.167 87.5,178.5C 87.8782,180.921 88.5448,183.254 89.5,185.5C 87.1468,183.14 85.1468,180.473 83.5,177.5 Z"/></g>
<g><path style="opacity:0.565" fill="#abd7e5" d="M 52.5,178.5 C 54.5869,179.585 55.9202,181.251 56.5,183.5C 54.4131,182.415 53.0798,180.749 52.5,178.5 Z"/></g>
<g><path style="opacity:0.725" fill="#e4a5a3" d="M 209.5,173.5 C 207.323,183.042 203.99,192.042 199.5,200.5C 202.462,191.271 205.796,182.271 209.5,173.5 Z"/></g>
<g><path style="opacity:0.925" fill="#e1a0a0" d="M 255.5,180.5 C 257.204,183.939 258.538,187.605 259.5,191.5C 256.81,188.431 255.477,184.764 255.5,180.5 Z"/></g>
<g><path style="opacity:0.588" fill="#a7d3e1" d="M 56.5,183.5 C 58.5869,184.585 59.9202,186.251 60.5,188.5C 58.4131,187.415 57.0798,185.749 56.5,183.5 Z"/></g>
<g><path style="opacity:0.808" fill="#a3cee3" d="M 62.5,190.5 C 65.2427,192.239 67.2427,194.573 68.5,197.5C 65.7573,195.761 63.7573,193.427 62.5,190.5 Z"/></g>
<g><path style="opacity:0.91" fill="#6da7cb" d="M 122.5,171.5 C 122.833,171.5 123.167,171.5 123.5,171.5C 134.958,181.301 146.958,190.301 159.5,198.5C 156.343,198.921 154.01,197.755 152.5,195C 149.009,193.63 145.675,192.13 142.5,190.5C 142.5,189.5 142.5,188.5 142.5,187.5C 138.618,187.454 135.952,185.621 134.5,182C 132.866,181.506 131.199,181.34 129.5,181.5C 129.67,180.178 129.337,179.011 128.5,178C 126.649,177.163 124.816,176.329 123,175.5C 122.51,174.207 122.343,172.873 122.5,171.5 Z"/></g>
<g><path style="opacity:0.878" fill="#e1a2a0" d="M 259.5,192.5 C 262.068,197.525 264.068,202.859 265.5,208.5C 264.883,208.389 264.383,208.056 264,207.5C 262.184,202.554 260.684,197.554 259.5,192.5 Z"/></g>
<g><path style="opacity:0.118" fill="#d9f3f8" d="M 2.5,196.5 C 1.88258,196.389 1.38258,196.056 1,195.5C 0.76791,196.737 0.26791,197.737 -0.5,198.5C -0.5,197.167 -0.5,195.833 -0.5,194.5C 1.59829,193.086 2.59829,193.752 2.5,196.5 Z"/></g>
<g><path style="opacity:0.459" fill="#c0dff0" d="M 99.5,197.5 C 102.5,198.5 104.5,200.5 105.5,203.5C 103.167,201.833 101.167,199.833 99.5,197.5 Z"/></g>
<g><path style="opacity:1" fill="#599fcb" d="M 89.5,185.5 C 92.9366,185.77 94.9366,187.603 95.5,191C 97.4405,191.304 99.1072,192.137 100.5,193.5C 101.086,193.291 101.586,192.957 102,192.5C 102.967,193.678 103.467,195.011 103.5,196.5C 104.689,197.429 106.022,197.762 107.5,197.5C 107.481,199.06 107.148,200.56 106.5,202C 108.112,203.482 109.112,205.315 109.5,207.5C 107.833,206.5 106.5,205.167 105.5,203.5C 104.5,200.5 102.5,198.5 99.5,197.5C 95.7899,193.792 92.4566,189.792 89.5,185.5 Z"/></g>
<g><path style="opacity:1" fill="#bd4344" d="M 252.5,176.5 C 253.143,178.076 254.143,179.41 255.5,180.5C 255.477,184.764 256.81,188.431 259.5,191.5C 259.5,191.833 259.5,192.167 259.5,192.5C 260.684,197.554 262.184,202.554 264,207.5C 264.383,208.056 264.883,208.389 265.5,208.5C 265.5,209.833 265.5,211.167 265.5,212.5C 263.257,208.314 261.09,203.981 259,199.5C 256.25,192 254.083,184.333 252.5,176.5 Z"/></g>
<g><path style="opacity:1" fill="#8fbed7" d="M 159.5,198.5 C 162.331,199.079 164.664,200.412 166.5,202.5C 163.069,202.955 160.736,201.621 159.5,198.5 Z"/></g>
<g><path style="opacity:0.99" fill="#74adce" d="M 16.5,197.5 C 17.5,197.5 18.5,197.5 19.5,197.5C 21.0536,201.302 22.0536,205.302 22.5,209.5C 19.9922,205.818 17.9922,201.818 16.5,197.5 Z"/></g>
<g><path style="opacity:0.827" fill="#dc9897" d="M 199.5,201.5 C 199.88,203.698 199.213,205.365 197.5,206.5C 197.796,204.597 198.463,202.93 199.5,201.5 Z"/></g>
<g><path style="opacity:0.718" fill="#e8b1aa" d="M 197.5,206.5 C 197.326,208.861 196.993,211.194 196.5,213.5C 195.833,213.5 195.5,213.833 195.5,214.5C 195.167,214.5 194.833,214.5 194.5,214.5C 195.129,211.603 196.129,208.936 197.5,206.5 Z"/></g>
<g><path style="opacity:0.518" fill="#bfdeeb" d="M 81.5,209.5 C 82.8333,210.167 83.8333,211.167 84.5,212.5C 82.5,212.5 81.5,211.5 81.5,209.5 Z"/></g>
<g><path style="opacity:1" fill="#79aed2" d="M 166.5,202.5 C 175.804,206.827 185.137,211.16 194.5,215.5C 194.5,216.167 194.167,216.5 193.5,216.5C 187.714,214.052 181.714,212.219 175.5,211C 172.426,208.151 169.426,205.317 166.5,202.5 Z"/></g>
<g><path style="opacity:1" fill="#7fb3d4" d="M 109.5,207.5 C 116.645,211.298 122.645,216.632 127.5,223.5C 121.197,218.532 115.197,213.198 109.5,207.5 Z"/></g>
<g><path style="opacity:0.686" fill="#e9aeae" d="M 265.5,208.5 C 267.204,211.939 268.538,215.605 269.5,219.5C 267.794,217.388 266.461,215.055 265.5,212.5C 265.5,211.167 265.5,209.833 265.5,208.5 Z"/></g>
<g><path style="opacity:1" fill="#7eb3d2" d="M 22.5,209.5 C 23.5,209.5 24.5,209.5 25.5,209.5C 25.238,210.978 25.5713,212.311 26.5,213.5C 27.7443,215.638 29.2443,217.638 31,219.5C 31.49,220.793 31.6567,222.127 31.5,223.5C 27.7191,219.376 24.7191,214.709 22.5,209.5 Z"/></g>
<g><path style="opacity:1" fill="#5a9ec9" d="M 6.5,207.5 C 8.6246,210.088 9.95793,213.088 10.5,216.5C 10.427,218.027 11.0937,219.027 12.5,219.5C 14.0828,221.663 15.4161,223.996 16.5,226.5C 16.427,228.027 17.0937,229.027 18.5,229.5C 18.5,230.167 18.5,230.833 18.5,231.5C 15.1642,230.477 13.6642,228.144 14,224.5C 13.6924,225.308 13.1924,225.975 12.5,226.5C 11.6922,224.577 11.1922,222.577 11,220.5C 6.88619,217.226 5.38619,212.893 6.5,207.5 Z"/></g>
<g><path style="opacity:0.361" fill="#b3daef" d="M 10.5,216.5 C 11.9063,216.973 12.573,217.973 12.5,219.5C 11.0937,219.027 10.427,218.027 10.5,216.5 Z"/></g>
<g><path style="opacity:1" fill="#6387b3" d="M 194.5,214.5 C 194.833,214.5 195.167,214.5 195.5,214.5C 195.414,215.496 195.748,216.329 196.5,217C 200.932,219.256 205.599,220.922 210.5,222C 213.093,224.114 215.76,225.947 218.5,227.5C 212.527,225.174 206.527,222.841 200.5,220.5C 198.527,221.331 196.527,221.498 194.5,221C 195.167,220.333 195.833,219.667 196.5,219C 194.881,218.764 193.881,217.931 193.5,216.5C 194.167,216.5 194.5,216.167 194.5,215.5C 194.5,215.167 194.5,214.833 194.5,214.5 Z"/></g>
<g><path style="opacity:1" fill="#a9505d" d="M 196.5,213.5 C 196.414,214.496 196.748,215.329 197.5,216C 208.006,219.506 218.006,224.172 227.5,230C 229.373,231.704 231.04,233.537 232.5,235.5C 227.993,232.654 223.327,229.987 218.5,227.5C 215.76,225.947 213.093,224.114 210.5,222C 205.599,220.922 200.932,219.256 196.5,217C 195.748,216.329 195.414,215.496 195.5,214.5C 195.5,213.833 195.833,213.5 196.5,213.5 Z"/></g>
<g><path style="opacity:1" fill="#78adcf" d="M 84.5,212.5 C 90.489,217.157 96.1557,222.157 101.5,227.5C 98.1458,226.127 94.8125,224.793 91.5,223.5C 91.6567,222.127 91.49,220.793 91,219.5C 87.0177,218.878 84.8511,216.544 84.5,212.5 Z"/></g>
<g><path style="opacity:0.114" fill="#f8d3cf" d="M 269.5,220.5 C 270.674,221.514 271.34,222.847 271.5,224.5C 269.896,223.713 269.229,222.38 269.5,220.5 Z"/></g>
<g><path style="opacity:0.769" fill="#afd4e6" d="M 129.5,225.5 C 132.089,226.419 134.089,228.086 135.5,230.5C 132.911,229.581 130.911,227.914 129.5,225.5 Z"/></g>
<g><path style="opacity:0.043" fill="#bbe9f8" d="M -0.5,219.5 C 0.801456,223.943 1.46812,228.609 1.5,233.5C 0.833333,231.5 0.166667,229.5 -0.5,227.5C -0.5,224.833 -0.5,222.167 -0.5,219.5 Z"/></g>
<g><path style="opacity:0.027" fill="#c1e6f4" d="M 101.5,227.5 C 103.027,227.427 104.027,228.094 104.5,229.5C 102.973,229.573 101.973,228.906 101.5,227.5 Z"/></g>
<g><path style="opacity:0.365" fill="#acd9ee" d="M 16.5,226.5 C 17.9063,226.973 18.573,227.973 18.5,229.5C 17.0937,229.027 16.427,228.027 16.5,226.5 Z"/></g>
<g><path style="opacity:0.749" fill="#e8abad" d="M 271.5,225.5 C 272.738,227.214 273.405,229.214 273.5,231.5C 271.926,229.898 271.259,227.898 271.5,225.5 Z"/></g>
<g><path style="opacity:0.412" fill="#b2daed" d="M 18.5,229.5 C 19.9063,229.973 20.573,230.973 20.5,232.5C 19.8333,232.167 19.1667,231.833 18.5,231.5C 18.5,230.833 18.5,230.167 18.5,229.5 Z"/></g>
<g><path style="opacity:1" fill="#69a6cb" d="M 2.5,196.5 C 4.11572,200.065 5.44905,203.731 6.5,207.5C 5.17331,206.2 3.83997,204.867 2.5,203.5C 1.80762,204.025 1.30762,204.692 1,205.5C 0.833333,207.667 0.666667,209.833 0.5,212C 2.1476,226.663 4.48093,241.163 7.5,255.5C 6.26162,253.786 5.59495,251.786 5.5,249.5C 5.59047,246.848 4.92381,244.515 3.5,242.5C 2.08699,239.781 1.42032,236.781 1.5,233.5C 1.46812,228.609 0.801456,223.943 -0.5,219.5C -0.5,212.5 -0.5,205.5 -0.5,198.5C 0.26791,197.737 0.76791,196.737 1,195.5C 1.38258,196.056 1.88258,196.389 2.5,196.5 Z"/></g>
<g><path style="opacity:0.486" fill="#b7d7eb" d="M 135.5,230.5 C 137.749,231.08 139.415,232.413 140.5,234.5C 138.251,233.92 136.585,232.587 135.5,230.5 Z"/></g>
<g><path style="opacity:0.82" fill="#e49d9b" d="M 273.5,231.5 C 274.537,232.93 275.204,234.597 275.5,236.5C 273.787,235.365 273.12,233.698 273.5,231.5 Z"/></g>
<g><path style="opacity:1" fill="#6fa6c9" d="M 140.5,234.5 C 146.499,235.481 150.833,238.814 153.5,244.5C 148.591,241.926 144.258,238.592 140.5,234.5 Z"/></g>
<g><path style="opacity:1" fill="#5a9ecc" d="M 54.5,250.5 C 49.1275,246.129 44.4608,241.129 40.5,235.5C 41.4959,235.414 42.3292,235.748 43,236.5C 43.4226,235.044 44.2559,234.544 45.5,235C 46.2638,237.069 46.7638,239.236 47,241.5C 47.6667,240.833 48.3333,240.167 49,239.5C 49.7412,240.641 50.5745,240.641 51.5,239.5C 52.5472,240.922 52.5472,242.422 51.5,244C 52.7689,246.084 53.7689,248.251 54.5,250.5 Z"/></g>
<g><path style="opacity:0.729" fill="#e3a49e" d="M 275.5,237.5 C 277.4,240.518 278.733,243.851 279.5,247.5C 277.103,244.691 275.77,241.358 275.5,237.5 Z"/></g>
<g><path style="opacity:0.38" fill="#b8dbec" d="M 3.5,242.5 C 4.92381,244.515 5.59047,246.848 5.5,249.5C 4.07619,247.485 3.40953,245.152 3.5,242.5 Z"/></g>
<g><path style="opacity:1" fill="#60a1cb" d="M 18.5,231.5 C 19.1667,231.833 19.8333,232.167 20.5,232.5C 23.8979,235.627 26.5646,239.293 28.5,243.5C 27.1667,243.5 25.8333,243.5 24.5,243.5C 24.719,244.675 24.3857,245.675 23.5,246.5C 22.4221,244.525 22.7554,242.692 24.5,241C 21.8539,238.198 19.8539,235.032 18.5,231.5 Z"/></g>
<g><path style="opacity:1" fill="#955c70" d="M 239.5,241.5 C 242.427,242.757 244.761,244.757 246.5,247.5C 243.573,246.243 241.239,244.243 239.5,241.5 Z"/></g>
<g><path style="opacity:1" fill="#79afcf" d="M 116.5,238.5 C 121.132,241.143 125.465,244.143 129.5,247.5C 125.91,247.457 123.243,245.957 121.5,243C 118.509,242.855 116.842,241.355 116.5,238.5 Z"/></g>
<g><path style="opacity:0.698" fill="#b8d9e8" d="M 30.5,245.5 C 32.914,246.911 34.5806,248.911 35.5,251.5C 34.5,250.833 33.5,250.167 32.5,249.5C 31.3995,248.395 30.7329,247.062 30.5,245.5 Z"/></g>
<g><path style="opacity:1" fill="#8b637b" d="M 246.5,247.5 C 250.234,250.231 253.234,253.564 255.5,257.5C 251.766,254.769 248.766,251.436 246.5,247.5 Z"/></g>
<g><path style="opacity:1" fill="#95bfd9" d="M 129.5,247.5 C 132.704,248.383 135.371,250.05 137.5,252.5C 134.046,251.925 131.379,250.258 129.5,247.5 Z"/></g>
<g><path style="opacity:1" fill="#74abcc" d="M 32.5,249.5 C 33.5,250.167 34.5,250.833 35.5,251.5C 40.5,255.833 45.1667,260.5 49.5,265.5C 47.742,265.123 46.0754,264.456 44.5,263.5C 40.4253,258.769 36.4253,254.103 32.5,249.5 Z"/></g>
<g><path style="opacity:0.843" fill="#8dbddb" d="M 54.5,250.5 C 57.1667,251.167 58.8333,252.833 59.5,255.5C 57.5,254.167 55.8333,252.5 54.5,250.5 Z"/></g>
<g><path style="opacity:0.114" fill="#fddada" d="M 279.5,248.5 C 280.391,249.261 281.058,250.261 281.5,251.5C 331.829,252.5 382.162,252.833 432.5,252.5C 432.5,253.5 432.5,254.5 432.5,255.5C 432.167,255.5 431.833,255.5 431.5,255.5C 381.511,253.505 331.178,252.838 280.5,253.5C 279.699,251.958 279.366,250.292 279.5,248.5 Z"/></g>
<g><path style="opacity:0.948" fill="#be5756" d="M 280.5,253.5 C 331.178,252.838 381.511,253.505 431.5,255.5C 430.078,256.925 428.411,257.925 426.5,258.5C 426.5,257.167 426.5,255.833 426.5,254.5C 377.664,254.832 328.997,254.499 280.5,253.5 Z"/></g>
<g><path style="opacity:1" fill="#ce3d3d" d="M 233.5,119.5 C 233.415,122.649 234.415,125.316 236.5,127.5C 236.345,130.716 237.345,133.383 239.5,135.5C 239.677,139.708 241.01,143.374 243.5,146.5C 243.5,146.833 243.5,147.167 243.5,147.5C 243.12,149.698 243.787,151.365 245.5,152.5C 245.12,154.698 245.787,156.365 247.5,157.5C 247.5,157.833 247.5,158.167 247.5,158.5C 247.12,160.698 247.787,162.365 249.5,163.5C 249.345,166.716 250.345,169.383 252.5,171.5C 252.5,171.833 252.5,172.167 252.5,172.5C 252.5,173.833 252.5,175.167 252.5,176.5C 254.083,184.333 256.25,192 259,199.5C 261.09,203.981 263.257,208.314 265.5,212.5C 266.461,215.055 267.794,217.388 269.5,219.5C 269.5,219.833 269.5,220.167 269.5,220.5C 269.229,222.38 269.896,223.713 271.5,224.5C 271.5,224.833 271.5,225.167 271.5,225.5C 271.259,227.898 271.926,229.898 273.5,231.5C 273.12,233.698 273.787,235.365 275.5,236.5C 275.5,236.833 275.5,237.167 275.5,237.5C 275.77,241.358 277.103,244.691 279.5,247.5C 279.5,247.833 279.5,248.167 279.5,248.5C 279.366,250.292 279.699,251.958 280.5,253.5C 328.997,254.499 377.664,254.832 426.5,254.5C 426.5,255.833 426.5,257.167 426.5,258.5C 425.833,259.833 424.833,260.833 423.5,261.5C 421.973,261.427 420.973,262.094 420.5,263.5C 418.958,262.699 417.292,262.366 415.5,262.5C 415.5,264.167 415.5,265.833 415.5,267.5C 412.356,268.172 409.356,269.172 406.5,270.5C 406.657,269.127 406.49,267.793 406,266.5C 405.747,269.2 405.747,271.867 406,274.5C 402.751,275.332 400.585,277.332 399.5,280.5C 396.241,281.664 392.907,282.664 389.5,283.5C 389.5,285.5 389.5,287.5 389.5,289.5C 389.167,289.5 388.833,289.5 388.5,289.5C 385.5,289.167 384.167,290.5 384.5,293.5C 383.5,294.167 382.5,294.833 381.5,295.5C 379.596,295.738 378.262,296.738 377.5,298.5C 374.143,298.23 371.809,298.896 370.5,300.5C 370.5,301.833 370.5,303.167 370.5,304.5C 368.883,305.038 367.216,305.371 365.5,305.5C 365.5,306.5 365.5,307.5 365.5,308.5C 365.5,309.167 365.167,309.5 364.5,309.5C 362.973,309.427 361.973,310.094 361.5,311.5C 359.801,311.34 358.134,311.506 356.5,312C 358.878,312.974 358.544,313.641 355.5,314C 354.177,314.816 353.511,315.983 353.5,317.5C 352.167,318.167 351.167,319.167 350.5,320.5C 350.167,321.5 349.5,322.167 348.5,322.5C 347.833,322.5 347.167,322.5 346.5,322.5C 345.167,322.5 343.833,322.5 342.5,322.5C 342.5,323.833 342.5,325.167 342.5,326.5C 337.458,325.505 335.125,327.505 335.5,332.5C 333.379,332.325 331.379,332.659 329.5,333.5C 328.738,331.738 327.404,330.738 325.5,330.5C 325.027,329.094 324.027,328.427 322.5,328.5C 321.738,326.738 320.404,325.738 318.5,325.5C 317.738,323.738 316.404,322.738 314.5,322.5C 313.738,320.738 312.404,319.738 310.5,319.5C 310.027,318.094 309.027,317.427 307.5,317.5C 306.738,315.738 305.404,314.738 303.5,314.5C 302.738,312.738 301.404,311.738 299.5,311.5C 299.027,310.094 298.027,309.427 296.5,309.5C 295.738,307.738 294.404,306.738 292.5,306.5C 291.738,304.738 290.404,303.738 288.5,303.5C 287.738,301.738 286.404,300.738 284.5,300.5C 284.027,299.094 283.027,298.427 281.5,298.5C 280.738,296.738 279.404,295.738 277.5,295.5C 277.027,294.094 276.027,293.427 274.5,293.5C 274.5,293.167 274.5,292.833 274.5,292.5C 275.169,280.818 271.169,271.485 262.5,264.5C 262.167,264.5 261.833,264.5 261.5,264.5C 260.243,261.573 258.243,259.239 255.5,257.5C 253.234,253.564 250.234,250.231 246.5,247.5C 244.761,244.757 242.427,242.757 239.5,241.5C 236.847,239.845 234.514,237.845 232.5,235.5C 231.04,233.537 229.373,231.704 227.5,230C 218.006,224.172 208.006,219.506 197.5,216C 196.748,215.329 196.414,214.496 196.5,213.5C 196.993,211.194 197.326,208.861 197.5,206.5C 199.213,205.365 199.88,203.698 199.5,201.5C 199.5,201.167 199.5,200.833 199.5,200.5C 203.99,192.042 207.323,183.042 209.5,173.5C 209.5,173.167 209.5,172.833 209.5,172.5C 211.897,169.691 213.23,166.358 213.5,162.5C 213.5,162.167 213.5,161.833 213.5,161.5C 214.857,160.41 215.857,159.076 216.5,157.5C 220.469,151.53 222.802,144.864 223.5,137.5C 223.5,136.167 223.5,134.833 223.5,133.5C 224.167,133.167 224.833,132.833 225.5,132.5C 228.499,128.478 230.499,123.812 231.5,118.5C 232.183,118.863 232.85,119.196 233.5,119.5 Z"/></g>
<g><path style="opacity:0.839" fill="#a6cde5" d="M 59.5,255.5 C 62.0892,256.419 64.0892,258.086 65.5,260.5C 62.9108,259.581 60.9108,257.914 59.5,255.5 Z"/></g>
<g><path style="opacity:1" fill="#79add1" d="M 168.5,255.5 C 174.302,256.11 178.302,259.11 180.5,264.5C 175.929,262.262 171.929,259.262 168.5,255.5 Z"/></g>
<g><path style="opacity:1" fill="#81b3d2" d="M 138.5,252.5 C 143.701,255.263 148.701,258.263 153.5,261.5C 149.461,262.34 146.461,261.007 144.5,257.5C 141.203,257.209 139.203,255.542 138.5,252.5 Z"/></g>
<g><path style="opacity:1" fill="#866c87" d="M 255.5,257.5 C 258.243,259.239 260.243,261.573 261.5,264.5C 258.757,262.761 256.757,260.427 255.5,257.5 Z"/></g>
<g><path style="opacity:0.792" fill="#a7cde5" d="M 67.5,262.5 C 69.7488,263.08 71.4154,264.413 72.5,266.5C 70.2512,265.92 68.5846,264.587 67.5,262.5 Z"/></g>
<g><path style="opacity:1" fill="#d46e6b" d="M 420.5,263.5 C 419.415,265.587 417.749,266.92 415.5,267.5C 415.5,265.833 415.5,264.167 415.5,262.5C 417.292,262.366 418.958,262.699 420.5,263.5 Z"/></g>
<g><path style="opacity:0.016" fill="#f6d8d6" d="M 423.5,261.5 C 423.027,262.906 422.027,263.573 420.5,263.5C 420.973,262.094 421.973,261.427 423.5,261.5 Z"/></g>
<g><path style="opacity:0.973" fill="#82b6d2" d="M 7.5,255.5 C 11.7202,259.94 14.3868,265.273 15.5,271.5C 11.7985,266.764 9.13182,261.43 7.5,255.5 Z"/></g>
<g><path style="opacity:1" fill="#8a6b80" d="M 261.5,264.5 C 261.833,264.5 262.167,264.5 262.5,264.5C 263.11,265.391 263.443,266.391 263.5,267.5C 262.833,267.167 262.167,266.833 261.5,266.5C 261.5,265.833 261.5,265.167 261.5,264.5 Z"/></g>
<g><path style="opacity:0.824" fill="#a0cae2" d="M 183.5,266.5 C 185.749,267.08 187.415,268.413 188.5,270.5C 186.251,269.92 184.585,268.587 183.5,266.5 Z"/></g>
<g><path style="opacity:1" fill="#ce6d68" d="M 415.5,267.5 C 410.752,272.584 405.419,276.917 399.5,280.5C 400.585,277.332 402.751,275.332 406,274.5C 405.747,271.867 405.747,269.2 406,266.5C 406.49,267.793 406.657,269.127 406.5,270.5C 409.356,269.172 412.356,268.172 415.5,267.5 Z"/></g>
<g><path style="opacity:1" fill="#7eb2d3" d="M 153.5,261.5 C 160.665,264.915 167.665,268.582 174.5,272.5C 169.691,271.768 165.025,270.435 160.5,268.5C 160.709,267.914 161.043,267.414 161.5,267C 159.608,266.027 157.608,265.36 155.5,265C 154.695,263.887 154.028,262.721 153.5,261.5 Z"/></g>
<g><path style="opacity:0.569" fill="#a4d0e6" d="M 72.5,266.5 C 74.7488,267.08 76.4154,268.413 77.5,270.5C 75.2512,269.92 73.5846,268.587 72.5,266.5 Z"/></g>
<g><path style="opacity:1" fill="#b7484c" d="M 262.5,264.5 C 271.169,271.485 275.169,280.818 274.5,292.5C 274.167,292.5 273.833,292.5 273.5,292.5C 273.887,288.556 273.22,284.889 271.5,281.5C 271.975,278.687 270.975,276.687 268.5,275.5C 267.617,272.296 265.95,269.629 263.5,267.5C 263.443,266.391 263.11,265.391 262.5,264.5 Z"/></g>
<g><path style="opacity:1" fill="#6f7fa5" d="M 261.5,266.5 C 262.167,266.833 262.833,267.167 263.5,267.5C 265.95,269.629 267.617,272.296 268.5,275.5C 267.504,275.586 266.671,275.252 266,274.5C 263.843,272.183 262.343,269.516 261.5,266.5 Z"/></g>
<g><path style="opacity:1" fill="#75acce" d="M 174.5,272.5 C 177.965,273.397 180.965,275.064 183.5,277.5C 181.808,281.6 180.141,285.6 178.5,289.5C 179.2,285.202 179.533,280.869 179.5,276.5C 176.633,276.631 174.967,275.297 174.5,272.5 Z"/></g>
<g><path style="opacity:0.973" fill="#84b6d4" d="M 61.5,275.5 C 66.2056,279.178 70.8723,282.844 75.5,286.5C 70.339,283.89 65.339,281.057 60.5,278C 61.2524,277.329 61.5858,276.496 61.5,275.5 Z"/></g>
<g><path style="opacity:1" fill="#80738c" d="M 268.5,275.5 C 270.975,276.687 271.975,278.687 271.5,281.5C 269.755,279.967 268.755,277.967 268.5,275.5 Z"/></g>
<g><path style="opacity:0.569" fill="#bdd7e8" d="M 9.5,282.5 C 8.88258,282.389 8.38258,282.056 8,281.5C 7.50204,284.482 7.33537,287.482 7.5,290.5C 6.22062,286.7 5.72062,282.7 6,278.5C 6.66667,277.167 7.33333,277.167 8,278.5C 8.79142,279.745 9.29142,281.078 9.5,282.5 Z"/></g>
<g><path style="opacity:1" fill="#65a4ca" d="M 88.5,278.5 C 92.8055,279.645 97.1388,280.978 101.5,282.5C 105.496,286.479 109.496,290.479 113.5,294.5C 109.827,293 106.494,291 103.5,288.5C 103.027,287.094 102.027,286.427 100.5,286.5C 96.1477,284.327 92.1477,281.66 88.5,278.5 Z"/></g>
<g><path style="opacity:1" fill="#cf6d69" d="M 399.5,280.5 C 396.208,283.49 392.874,286.49 389.5,289.5C 389.5,287.5 389.5,285.5 389.5,283.5C 392.907,282.664 396.241,281.664 399.5,280.5 Z"/></g>
<g><path style="opacity:0.953" fill="#7db0d2" d="M 9.5,282.5 C 10.6737,283.514 11.3404,284.847 11.5,286.5C 10.5041,286.586 9.67076,286.252 9,285.5C 8.97805,290.818 9.14472,296.151 9.5,301.5C 8.09659,298.091 7.42993,294.425 7.5,290.5C 7.33537,287.482 7.50204,284.482 8,281.5C 8.38258,282.056 8.88258,282.389 9.5,282.5 Z"/></g>
<g><path style="opacity:1" fill="#98c4df" d="M 257.5,287.5 C 253.03,286.284 249.03,287.284 245.5,290.5C 245.5,289.167 245.5,287.833 245.5,286.5C 248.219,286.603 250.885,286.269 253.5,285.5C 255.171,285.668 256.504,286.335 257.5,287.5 Z"/></g>
<g><path style="opacity:0.275" fill="#c6e3f5" d="M 100.5,286.5 C 102.027,286.427 103.027,287.094 103.5,288.5C 101.973,288.573 100.973,287.906 100.5,286.5 Z"/></g>
<g><path style="opacity:0.004" fill="#fefffe" d="M 14.5,288.5 C 15.8333,289.167 15.8333,289.167 14.5,288.5 Z"/></g>
<g><path style="opacity:0.584" fill="#a7cde5" d="M 189.5,284.5 C 189.829,287.228 189.163,289.562 187.5,291.5C 187.41,288.848 188.076,286.515 189.5,284.5 Z"/></g>
<g><path style="opacity:0.745" fill="#d38d8b" d="M 388.5,289.5 C 387.5,291.167 386.167,292.5 384.5,293.5C 384.167,290.5 385.5,289.167 388.5,289.5 Z"/></g>
<g><path style="opacity:0.302" fill="#c6e3f2" d="M 264.5,290.5 C 266.027,290.427 267.027,291.094 267.5,292.5C 265.973,292.573 264.973,291.906 264.5,290.5 Z"/></g>
<g><path style="opacity:1" fill="#7db7d6" d="M 80.5,289.5 C 83.1354,290.811 85.4687,292.478 87.5,294.5C 83.5208,295.019 81.1874,293.352 80.5,289.5 Z"/></g>
<g><path style="opacity:0.62" fill="#a9d6e9" d="M 267.5,292.5 C 269.027,292.427 270.027,293.094 270.5,294.5C 268.973,294.573 267.973,293.906 267.5,292.5 Z"/></g>
<g><path style="opacity:0.404" fill="#b3deef" d="M 15.5,292.5 C 16.9063,292.973 17.573,293.973 17.5,295.5C 16.8333,295.167 16.1667,294.833 15.5,294.5C 15.5,293.833 15.5,293.167 15.5,292.5 Z"/></g>
<g><path style="opacity:1" fill="#89b3ce" d="M 245.5,290.5 C 243.091,292.902 241.091,295.569 239.5,298.5C 238.833,298.167 238.167,297.833 237.5,297.5C 237.5,296.5 237.5,295.5 237.5,294.5C 239.121,294.213 240.121,293.213 240.5,291.5C 242.045,290.548 243.712,290.215 245.5,290.5 Z"/></g>
<g><path style="opacity:0.514" fill="#e8a9aa" d="M 274.5,293.5 C 276.027,293.427 277.027,294.094 277.5,295.5C 275.973,295.573 274.973,294.906 274.5,293.5 Z"/></g>
<g><path style="opacity:0.035" fill="#d5def1" d="M 273.5,292.5 C 273.833,292.5 274.167,292.5 274.5,292.5C 274.5,292.833 274.5,293.167 274.5,293.5C 273.226,294.189 273.226,295.023 274.5,296C 272.537,296.844 271.204,296.344 270.5,294.5C 271.117,294.611 271.617,294.944 272,295.5C 272.232,294.263 272.732,293.263 273.5,292.5 Z"/></g>
<g><path style="opacity:1" fill="#76abcd" d="M 15.5,272.5 C 16.8221,272.33 17.9887,272.663 19,273.5C 19.3599,275.608 20.0266,277.608 21,279.5C 21.3333,278.833 21.6667,278.167 22,277.5C 22.4709,279.246 23.1376,280.913 24,282.5C 27.836,287.995 32.0027,293.162 36.5,298C 35.944,298.383 35.6107,298.883 35.5,299.5C 27.3227,291.651 20.656,282.651 15.5,272.5 Z"/></g>
<g><path style="opacity:0.631" fill="#e19f9f" d="M 277.5,295.5 C 279.404,295.738 280.738,296.738 281.5,298.5C 279.596,298.262 278.262,297.262 277.5,295.5 Z"/></g>
<g><path style="opacity:0.075" fill="#f1cec8" d="M 381.5,295.5 C 380.738,297.262 379.404,298.262 377.5,298.5C 378.262,296.738 379.596,295.738 381.5,295.5 Z"/></g>
<g><path style="opacity:0.557" fill="#add8eb" d="M 17.5,295.5 C 19.2624,296.262 20.2624,297.596 20.5,299.5C 18.7376,298.738 17.7376,297.404 17.5,295.5 Z"/></g>
<g><path style="opacity:1" fill="#5392c2" d="M 237.5,294.5 C 237.5,295.5 237.5,296.5 237.5,297.5C 236.471,299.517 235.471,301.517 234.5,303.5C 232.277,306.144 230.611,309.144 229.5,312.5C 226.203,316.822 224.87,321.822 225.5,327.5C 225.167,327.5 224.833,327.5 224.5,327.5C 223.167,331.167 223.167,334.833 224.5,338.5C 224.334,342.846 224.501,347.179 225,351.5C 225.21,353.058 225.71,354.391 226.5,355.5C 227.434,356.568 227.768,357.901 227.5,359.5C 227.575,362.206 227.908,364.873 228.5,367.5C 227.001,366.322 226.001,364.655 225.5,362.5C 222.387,349.068 221.721,335.401 223.5,321.5C 224.353,319.065 225.353,316.731 226.5,314.5C 225.669,312.527 225.502,310.527 226,308.5C 228.778,307.388 230.945,305.555 232.5,303C 231.892,302.13 231.059,301.63 230,301.5C 227.684,302.853 226.684,302.187 227,299.5C 229.005,297.2 231.172,297.2 233.5,299.5C 234.583,298.635 234.749,297.635 234,296.5C 233.346,297.696 232.846,297.696 232.5,296.5C 233.98,294.543 235.647,293.876 237.5,294.5 Z"/></g>
<g><path style="opacity:1" fill="#7eb7d4" d="M 87.5,294.5 C 90.669,295.917 93.669,297.583 96.5,299.5C 93.4359,299.072 90.4359,298.406 87.5,297.5C 87.5,296.5 87.5,295.5 87.5,294.5 Z"/></g>
<g><path style="opacity:0.031" fill="#f1c4c1" d="M 239.5,299.5 C 239.5,299.167 239.5,298.833 239.5,298.5C 241.027,298.427 242.027,299.094 242.5,300.5C 241.833,300.5 241.167,300.5 240.5,300.5C 240.5,299.833 240.167,299.5 239.5,299.5 Z"/></g>
<g><path style="opacity:1" fill="#86b7d6" d="M 177.5,292.5 C 175.787,300.687 173.787,308.687 171.5,316.5C 171.368,313.43 171.701,310.43 172.5,307.5C 172.336,304.813 172.503,302.146 173,299.5C 174.93,297.392 176.43,295.059 177.5,292.5 Z"/></g>
<g><path style="opacity:0.569" fill="#df9c9a" d="M 281.5,298.5 C 283.027,298.427 284.027,299.094 284.5,300.5C 282.973,300.573 281.973,299.906 281.5,298.5 Z"/></g>
<g><path style="opacity:0.91" fill="#dc9091" d="M 284.5,300.5 C 286.404,300.738 287.738,301.738 288.5,303.5C 286.596,303.262 285.262,302.262 284.5,300.5 Z"/></g>
<g><path style="opacity:1" fill="#d3716f" d="M 377.5,298.5 C 375.766,301.2 373.432,303.2 370.5,304.5C 370.5,303.167 370.5,301.833 370.5,300.5C 371.809,298.896 374.143,298.23 377.5,298.5 Z"/></g>
<g><path style="opacity:0.204" fill="#c3e4f7" d="M 125.5,300.5 C 127.027,300.427 128.027,301.094 128.5,302.5C 126.973,302.573 125.973,301.906 125.5,300.5 Z"/></g>
<g><path style="opacity:0.671" fill="#aed7e9" d="M 185.5,298.5 C 185.59,301.152 184.924,303.485 183.5,305.5C 183.41,302.848 184.076,300.515 185.5,298.5 Z"/></g>
<g><path style="opacity:1" fill="#cf7470" d="M 240.5,300.5 C 241.167,300.5 241.833,300.5 242.5,300.5C 245.109,301.443 247.109,303.11 248.5,305.5C 245.769,303.834 243.103,302.168 240.5,300.5 Z"/></g>
<g><path style="opacity:1" fill="#a0525d" d="M 237.5,297.5 C 238.167,297.833 238.833,298.167 239.5,298.5C 239.5,298.833 239.5,299.167 239.5,299.5C 237.846,300.75 236.179,302.084 234.5,303.5C 235.471,301.517 236.471,299.517 237.5,297.5 Z"/></g>
<g><path style="opacity:1" fill="#4c99cb" d="M 11.5,286.5 C 12.7281,287.306 13.7281,288.306 14.5,289.5C 15.1098,290.391 15.4431,291.391 15.5,292.5C 15.5,293.167 15.5,293.833 15.5,294.5C 13.5915,294.117 12.0915,293.117 11,291.5C 10.5045,293.473 10.3379,295.473 10.5,297.5C 11.5,297.5 12.5,297.5 13.5,297.5C 13.3379,299.527 13.5045,301.527 14,303.5C 16.1667,302 17.6667,302.5 18.5,305C 17.6509,309.809 16.9842,314.643 16.5,319.5C 15.8333,319.167 15.1667,318.833 14.5,318.5C 14.33,317.178 14.6634,316.011 15.5,315C 14.3094,314.302 13.3094,313.469 12.5,312.5C 10.9257,309.093 9.92569,305.427 9.5,301.5C 9.14472,296.151 8.97805,290.818 9,285.5C 9.67076,286.252 10.5041,286.586 11.5,286.5 Z"/></g>
<g><path style="opacity:0.847" fill="#da9e9c" d="M 288.5,303.5 C 290.404,303.738 291.738,304.738 292.5,306.5C 290.596,306.262 289.262,305.262 288.5,303.5 Z"/></g>
<g><path style="opacity:0.525" fill="#b7deef" d="M 39.5,304.5 C 42.0892,305.419 44.0892,307.086 45.5,309.5C 42.9108,308.581 40.9108,306.914 39.5,304.5 Z"/></g>
<g><path style="opacity:1" fill="#6ca7ce" d="M 96.5,299.5 C 106.742,305.12 117.076,310.454 127.5,315.5C 120.421,313.617 113.421,311.45 106.5,309C 105.284,307.26 103.618,306.26 101.5,306C 99.5937,303.939 97.927,301.772 96.5,299.5 Z"/></g>
<g><path style="opacity:0.027" fill="#eeb9b6" d="M 248.5,305.5 C 250.027,305.427 251.027,306.094 251.5,307.5C 249.973,307.573 248.973,306.906 248.5,305.5 Z"/></g>
<g><path style="opacity:0.043" fill="#e6a1a2" d="M 370.5,304.5 C 369.055,306.063 367.389,307.396 365.5,308.5C 365.5,307.5 365.5,306.5 365.5,305.5C 367.216,305.371 368.883,305.038 370.5,304.5 Z"/></g>
<g><path style="opacity:1" fill="#68a4ca" d="M 20.5,299.5 C 24.1803,303.183 27.5136,307.183 30.5,311.5C 30.5,312.167 30.5,312.833 30.5,313.5C 28.1971,311.033 25.6971,308.7 23,306.5C 21.0972,304.559 20.2639,302.226 20.5,299.5 Z"/></g>
<g><path style="opacity:0.569" fill="#e1ada8" d="M 292.5,306.5 C 294.404,306.738 295.738,307.738 296.5,309.5C 294.596,309.262 293.262,308.262 292.5,306.5 Z"/></g>
<g><path style="opacity:0.918" fill="#df9999" d="M 251.5,307.5 C 253.23,308.026 254.564,309.026 255.5,310.5C 253.368,310.446 252.035,309.446 251.5,307.5 Z"/></g>
<g><path style="opacity:1" fill="#b64652" d="M 234.5,303.5 C 233.397,307.497 231.731,311.164 229.5,314.5C 229.5,313.833 229.5,313.167 229.5,312.5C 230.611,309.144 232.277,306.144 234.5,303.5 Z"/></g>
<g><path style="opacity:0.541" fill="#eaa8a7" d="M 296.5,309.5 C 298.027,309.427 299.027,310.094 299.5,311.5C 297.973,311.573 296.973,310.906 296.5,309.5 Z"/></g>
<g><path style="opacity:0.012" fill="#f8d6d5" d="M 364.5,309.5 C 364.027,310.906 363.027,311.573 361.5,311.5C 361.973,310.094 362.973,309.427 364.5,309.5 Z"/></g>
<g><path style="opacity:1" fill="#d47979" d="M 361.5,311.5 C 359.766,314.2 357.432,316.2 354.5,317.5C 354.167,317.5 353.833,317.5 353.5,317.5C 353.511,315.983 354.177,314.816 355.5,314C 358.544,313.641 358.878,312.974 356.5,312C 358.134,311.506 359.801,311.34 361.5,311.5 Z"/></g>
<g><path style="opacity:0.722" fill="#abd4ea" d="M 30.5,311.5 C 32.914,312.911 34.5806,314.911 35.5,317.5C 33.8333,316.167 32.1667,314.833 30.5,313.5C 30.5,312.833 30.5,312.167 30.5,311.5 Z"/></g>
<g><path style="opacity:0.486" fill="#afd4eb" d="M 183.5,306.5 C 183.829,309.228 183.163,311.562 181.5,313.5C 181.41,310.848 182.076,308.515 183.5,306.5 Z"/></g>
<g><path style="opacity:0.627" fill="#e0a99c" d="M 255.5,310.5 C 257.23,311.026 258.564,312.026 259.5,313.5C 257.368,313.446 256.035,312.446 255.5,310.5 Z"/></g>
<g><path style="opacity:0.675" fill="#de9999" d="M 299.5,311.5 C 301.404,311.738 302.738,312.738 303.5,314.5C 301.596,314.262 300.262,313.262 299.5,311.5 Z"/></g>
<g><path style="opacity:1" fill="#ce3d3d" d="M 239.5,299.5 C 240.167,299.5 240.5,299.833 240.5,300.5C 243.103,302.168 245.769,303.834 248.5,305.5C 248.973,306.906 249.973,307.573 251.5,307.5C 252.035,309.446 253.368,310.446 255.5,310.5C 256.035,312.446 257.368,313.446 259.5,313.5C 260.5,314.167 261.5,314.833 262.5,315.5C 263.13,318.705 265.13,320.371 268.5,320.5C 269.035,322.446 270.368,323.446 272.5,323.5C 273.035,325.446 274.368,326.446 276.5,326.5C 276.694,328.912 278.027,329.912 280.5,329.5C 281.539,331.531 283.205,332.864 285.5,333.5C 286.977,336.934 289.643,338.934 293.5,339.5C 294.5,340.167 295.5,340.833 296.5,341.5C 296.539,342.583 296.873,343.583 297.5,344.5C 299.737,345.132 301.403,346.465 302.5,348.5C 303.736,349.246 305.07,349.579 306.5,349.5C 306.5,350.167 306.5,350.833 306.5,351.5C 307.768,352.787 307.435,353.787 305.5,354.5C 307.465,355.292 309.465,355.959 311.5,356.5C 314.501,362.837 315.834,369.504 315.5,376.5C 316.5,376.5 317.5,376.5 318.5,376.5C 319.673,381.358 321.006,386.191 322.5,391C 322.415,392.107 322.081,393.107 321.5,394C 324.585,396.199 325.585,399.033 324.5,402.5C 323.378,401.37 322.044,400.703 320.5,400.5C 319.609,399.89 318.609,399.557 317.5,399.5C 316.738,397.738 315.404,396.738 313.5,396.5C 312.738,394.738 311.404,393.738 309.5,393.5C 308.738,391.738 307.404,390.738 305.5,390.5C 304.738,388.738 303.404,387.738 301.5,387.5C 300.415,385.413 298.749,384.08 296.5,383.5C 295.738,381.738 294.404,380.738 292.5,380.5C 291.738,378.738 290.404,377.738 288.5,377.5C 287.738,375.738 286.404,374.738 284.5,374.5C 283.738,372.738 282.404,371.738 280.5,371.5C 279.415,369.413 277.749,368.08 275.5,367.5C 274.738,365.738 273.404,364.738 271.5,364.5C 270.738,362.738 269.404,361.738 267.5,361.5C 266.738,359.738 265.404,358.738 263.5,358.5C 262.415,356.413 260.749,355.08 258.5,354.5C 257.738,352.738 256.404,351.738 254.5,351.5C 253.738,349.738 252.404,348.738 250.5,348.5C 249.738,346.738 248.404,345.738 246.5,345.5C 245.738,343.738 244.404,342.738 242.5,342.5C 241.415,340.413 239.749,339.08 237.5,338.5C 236.738,336.738 235.404,335.738 233.5,335.5C 232.779,333.618 231.779,333.285 230.5,334.5C 230.027,335.906 229.027,336.573 227.5,336.5C 225.612,334.012 224.945,331.012 225.5,327.5C 226.541,323.082 227.875,318.749 229.5,314.5C 231.731,311.164 233.397,307.497 234.5,303.5C 236.179,302.084 237.846,300.75 239.5,299.5 Z"/></g>
<g><path style="opacity:1" fill="#91bede" d="M 12.5,312.5 C 13.3094,313.469 14.3094,314.302 15.5,315C 14.6634,316.011 14.33,317.178 14.5,318.5C 13.2616,316.786 12.595,314.786 12.5,312.5 Z"/></g>
<g><path style="opacity:0.757" fill="#add4e7" d="M 50.5,314.5 C 53.0892,315.419 55.0892,317.086 56.5,319.5C 53.9108,318.581 51.9108,316.914 50.5,314.5 Z"/></g>
<g><path style="opacity:0.773" fill="#e1a6a1" d="M 303.5,314.5 C 305.404,314.738 306.738,315.738 307.5,317.5C 305.596,317.262 304.262,316.262 303.5,314.5 Z"/></g>
<g><path style="opacity:0.529" fill="#9bd3ea" d="M 137.5,306.5 C 138.5,306.5 139.5,306.5 140.5,306.5C 140.5,311.167 140.5,315.833 140.5,320.5C 139.209,320.737 138.209,320.404 137.5,319.5C 138.117,319.389 138.617,319.056 139,318.5C 139.981,314.183 139.481,310.183 137.5,306.5 Z"/></g>
<g><path style="opacity:0.757" fill="#e19f9c" d="M 307.5,317.5 C 309.027,317.427 310.027,318.094 310.5,319.5C 308.973,319.573 307.973,318.906 307.5,317.5 Z"/></g>
<g><path style="opacity:1" fill="#91bdd9" d="M 127.5,315.5 C 131.127,316.321 134.46,317.654 137.5,319.5C 134.856,319.84 132.523,319.173 130.5,317.5C 128.863,318.444 127.863,317.777 127.5,315.5 Z"/></g>
<g><path style="opacity:1" fill="#a25466" d="M 229.5,312.5 C 229.5,313.167 229.5,313.833 229.5,314.5C 227.875,318.749 226.541,323.082 225.5,327.5C 224.87,321.822 226.203,316.822 229.5,312.5 Z"/></g>
<g><path style="opacity:0.945" fill="#d38884" d="M 262.5,315.5 C 264.54,317.177 266.54,318.844 268.5,320.5C 265.13,320.371 263.13,318.705 262.5,315.5 Z"/></g>
<g><path style="opacity:0.055" fill="#f6c7c8" d="M 353.5,317.5 C 353.833,317.5 354.167,317.5 354.5,317.5C 353.738,319.262 352.404,320.262 350.5,320.5C 351.167,319.167 352.167,318.167 353.5,317.5 Z"/></g>
<g><path style="opacity:1" fill="#7fb4d6" d="M 14.5,318.5 C 15.1667,318.833 15.8333,319.167 16.5,319.5C 19.5607,323.973 21.2274,328.973 21.5,334.5C 18.6493,329.459 16.316,324.125 14.5,318.5 Z"/></g>
<g><path style="opacity:0.859" fill="#db9396" d="M 310.5,319.5 C 312.404,319.738 313.738,320.738 314.5,322.5C 312.596,322.262 311.262,321.262 310.5,319.5 Z"/></g>
<g><path style="opacity:0.584" fill="#a9d2eb" d="M 56.5,319.5 C 58.7488,320.08 60.4154,321.413 61.5,323.5C 59.2512,322.92 57.5846,321.587 56.5,319.5 Z"/></g>
<g><path style="opacity:0.29" fill="#bfe4f3" d="M 181.5,314.5 C 181.706,317.495 181.04,320.162 179.5,322.5C 179.565,319.572 180.232,316.905 181.5,314.5 Z"/></g>
<g><path style="opacity:0.643" fill="#df9e9b" d="M 268.5,320.5 C 270.23,321.026 271.564,322.026 272.5,323.5C 270.368,323.446 269.035,322.446 268.5,320.5 Z"/></g>
<g><path style="opacity:0.804" fill="#e19e9c" d="M 314.5,322.5 C 316.404,322.738 317.738,323.738 318.5,325.5C 316.596,325.262 315.262,324.262 314.5,322.5 Z"/></g>
<g><path style="opacity:0.016" fill="#b5e3ef" d="M 41.5,323.5 C 43.7488,324.08 45.4154,325.413 46.5,327.5C 45.391,327.443 44.391,327.11 43.5,326.5C 42.8333,325.5 42.1667,324.5 41.5,323.5 Z"/></g>
<g><path style="opacity:0.02" fill="#f6d5d5" d="M 346.5,322.5 C 347.167,322.5 347.833,322.5 348.5,322.5C 348.027,323.906 347.027,324.573 345.5,324.5C 345.833,323.833 346.167,323.167 346.5,322.5 Z"/></g>
<g><path style="opacity:1" fill="#73accc" d="M 61.5,323.5 C 65.6147,323.62 68.2814,325.62 69.5,329.5C 66.4669,327.984 63.8003,325.984 61.5,323.5 Z"/></g>
<g><path style="opacity:0.62" fill="#e5a3a4" d="M 272.5,323.5 C 274.23,324.026 275.564,325.026 276.5,326.5C 274.368,326.446 273.035,325.446 272.5,323.5 Z"/></g>
<g><path style="opacity:0.58" fill="#e4a7a4" d="M 318.5,325.5 C 320.404,325.738 321.738,326.738 322.5,328.5C 320.596,328.262 319.262,327.262 318.5,325.5 Z"/></g>
<g><path style="opacity:1" fill="#d46b67" d="M 346.5,322.5 C 346.167,323.167 345.833,323.833 345.5,324.5C 343.105,327.861 340.105,330.528 336.5,332.5C 336.167,332.5 335.833,332.5 335.5,332.5C 335.125,327.505 337.458,325.505 342.5,326.5C 342.5,325.167 342.5,323.833 342.5,322.5C 343.833,322.5 345.167,322.5 346.5,322.5 Z"/></g>
<g><path style="opacity:0.91" fill="#d68b88" d="M 276.5,326.5 C 278.23,327.026 279.564,328.026 280.5,329.5C 278.027,329.912 276.694,328.912 276.5,326.5 Z"/></g>
<g><path style="opacity:0.522" fill="#e2a9a3" d="M 322.5,328.5 C 324.027,328.427 325.027,329.094 325.5,330.5C 323.973,330.573 322.973,329.906 322.5,328.5 Z"/></g>
<g><path style="opacity:1" fill="#69a4c8" d="M 43.5,326.5 C 44.391,327.11 45.391,327.443 46.5,327.5C 50.3971,330.609 54.0638,333.943 57.5,337.5C 54.8858,337.723 53.2191,336.556 52.5,334C 48.4948,332.512 45.4948,330.012 43.5,326.5 Z"/></g>
<g><path style="opacity:0.337" fill="#baddf3" d="M 170.5,321.5 C 170.468,326.391 169.801,331.057 168.5,335.5C 168.362,330.586 169.028,325.919 170.5,321.5 Z"/></g>
<g><path style="opacity:0.859" fill="#dfa9a9" d="M 280.5,329.5 C 282.754,330.124 284.421,331.457 285.5,333.5C 283.205,332.864 281.539,331.531 280.5,329.5 Z"/></g>
<g><path style="opacity:0.871" fill="#abd3e8" d="M 179.5,324.5 C 179.5,327.167 179.5,329.833 179.5,332.5C 178.337,337.137 177.337,341.804 176.5,346.5C 176.398,338.883 177.398,331.55 179.5,324.5 Z"/></g>
<g><path style="opacity:0.651" fill="#e19f9f" d="M 325.5,330.5 C 327.404,330.738 328.738,331.738 329.5,333.5C 327.596,333.262 326.262,332.262 325.5,330.5 Z"/></g>
<g><path style="opacity:1" fill="#7db1d1" d="M 69.5,329.5 C 74.2181,329.859 77.5514,332.192 79.5,336.5C 75.6082,334.938 72.2749,332.605 69.5,329.5 Z"/></g>
<g><path style="opacity:1" fill="#d27e80" d="M 335.5,332.5 C 335.833,332.5 336.167,332.5 336.5,332.5C 335.166,333.652 333.666,334.652 332,335.5C 330.699,335.361 329.866,334.695 329.5,333.5C 331.379,332.659 333.379,332.325 335.5,332.5 Z"/></g>
<g><path style="opacity:1" fill="#9e5f6f" d="M 224.5,327.5 C 224.833,327.5 225.167,327.5 225.5,327.5C 224.945,331.012 225.612,334.012 227.5,336.5C 227.5,337.167 227.167,337.5 226.5,337.5C 224.598,334.663 223.931,331.329 224.5,327.5 Z"/></g>
<g><path style="opacity:0.467" fill="#e3afa4" d="M 230.5,334.5 C 231.779,333.285 232.779,333.618 233.5,335.5C 232.391,335.443 231.391,335.11 230.5,334.5 Z"/></g>
<g><path style="opacity:1" fill="#8d809f" d="M 224.5,327.5 C 223.931,331.329 224.598,334.663 226.5,337.5C 226.5,338.167 226.167,338.5 225.5,338.5C 225.167,338.5 224.833,338.5 224.5,338.5C 223.167,334.833 223.167,331.167 224.5,327.5 Z"/></g>
<g><path style="opacity:0.8" fill="#da9b99" d="M 233.5,335.5 C 235.404,335.738 236.738,336.738 237.5,338.5C 235.596,338.262 234.262,337.262 233.5,335.5 Z"/></g>
<g><path style="opacity:0.361" fill="#b3def3" d="M 79.5,336.5 C 81.0269,336.427 82.0269,337.094 82.5,338.5C 80.9731,338.573 79.9731,337.906 79.5,336.5 Z"/></g>
<g><path style="opacity:1" fill="#d68685" d="M 285.5,333.5 C 288.473,335.147 291.14,337.147 293.5,339.5C 289.643,338.934 286.977,336.934 285.5,333.5 Z"/></g>
<g><path style="opacity:1" fill="#4f9aca" d="M 172.5,307.5 C 171.701,310.43 171.368,313.43 171.5,316.5C 171.784,318.415 171.451,320.081 170.5,321.5C 169.028,325.919 168.362,330.586 168.5,335.5C 166.999,343.278 166.332,351.278 166.5,359.5C 166.501,365.011 166.834,370.344 167.5,375.5C 168.577,381.312 169.243,387.312 169.5,393.5C 169.335,396.518 169.502,399.518 170,402.5C 170.278,403.416 170.778,404.082 171.5,404.5C 173.085,410.089 174.418,415.756 175.5,421.5C 175.5,422.833 175.5,424.167 175.5,425.5C 173.356,423.898 172.022,421.731 171.5,419C 171.292,415.609 170.459,412.442 169,409.5C 168.502,406.183 168.335,402.85 168.5,399.5C 167.5,399.5 166.5,399.5 165.5,399.5C 166.148,394.172 166.315,388.838 166,383.5C 165.798,385.256 165.298,386.922 164.5,388.5C 164.167,387.667 163.833,386.833 163.5,386C 163.383,377.184 163.716,368.35 164.5,359.5C 164.24,355.75 163.573,352.084 162.5,348.5C 165.401,341.185 166.068,333.685 164.5,326C 165.068,322.158 165.735,318.325 166.5,314.5C 167.192,315.025 167.692,315.692 168,316.5C 169.044,314.285 169.71,311.952 170,309.5C 170.708,308.619 171.542,307.953 172.5,307.5 Z"/></g>
<g><path style="opacity:0.839" fill="#8cbfd5" d="M 58.5,337.5 C 60.5398,339.177 62.5398,340.844 64.5,342.5C 61.1299,342.371 59.1299,340.705 58.5,337.5 Z"/></g>
<g><path style="opacity:1" fill="#7baed0" d="M 84.5,339.5 C 87.7449,339.88 90.7449,341.047 93.5,343C 94.2524,343.671 94.5858,344.504 94.5,345.5C 90.827,344 87.4937,342 84.5,339.5 Z"/></g>
<g><path style="opacity:0.353" fill="#e7b0b0" d="M 237.5,338.5 C 239.749,339.08 241.415,340.413 242.5,342.5C 240.251,341.92 238.585,340.587 237.5,338.5 Z"/></g>
<g><path style="opacity:0.573" fill="#e7b1af" d="M 242.5,342.5 C 244.404,342.738 245.738,343.738 246.5,345.5C 244.596,345.262 243.262,344.262 242.5,342.5 Z"/></g>
<g><path style="opacity:0.149" fill="#c8e9f6" d="M 26.5,343.5 C 27.9063,343.973 28.573,344.973 28.5,346.5C 27.0937,346.027 26.427,345.027 26.5,343.5 Z"/></g>
<g><path style="opacity:0.765" fill="#e3a2a1" d="M 246.5,345.5 C 248.404,345.738 249.738,346.738 250.5,348.5C 248.596,348.262 247.262,347.262 246.5,345.5 Z"/></g>
<g><path style="opacity:0.925" fill="#8eb5d1" d="M 94.5,345.5 C 97.285,344.916 98.9517,345.916 99.5,348.5C 97.326,348.25 95.6594,347.25 94.5,345.5 Z"/></g>
<g><path style="opacity:1" fill="#ce7a74" d="M 296.5,341.5 C 300.146,343.817 303.48,346.484 306.5,349.5C 305.07,349.579 303.736,349.246 302.5,348.5C 301.403,346.465 299.737,345.132 297.5,344.5C 296.873,343.583 296.539,342.583 296.5,341.5 Z"/></g>
<g><path style="opacity:0.643" fill="#e19d9b" d="M 250.5,348.5 C 252.404,348.738 253.738,349.738 254.5,351.5C 252.596,351.262 251.262,350.262 250.5,348.5 Z"/></g>
<g><path style="opacity:0.933" fill="#df9695" d="M 306.5,349.5 C 308.23,350.026 309.564,351.026 310.5,352.5C 309.167,352.167 307.833,351.833 306.5,351.5C 306.5,350.833 306.5,350.167 306.5,349.5 Z"/></g>
<g><path style="opacity:0.375" fill="#a8d7f1" d="M 168.5,335.5 C 167.753,348.82 167.42,362.153 167.5,375.5C 166.834,370.344 166.501,365.011 166.5,359.5C 166.332,351.278 166.999,343.278 168.5,335.5 Z"/></g>
<g><path style="opacity:0.867" fill="#db9794" d="M 254.5,351.5 C 256.404,351.738 257.738,352.738 258.5,354.5C 256.596,354.262 255.262,353.262 254.5,351.5 Z"/></g>
<g><path style="opacity:1" fill="#8bb9d5" d="M 31.5,351.5 C 34.9812,352.99 36.9812,355.657 37.5,359.5C 35.0252,357.23 33.0252,354.563 31.5,351.5 Z"/></g>
<g><path style="opacity:0.565" fill="#b6dcee" d="M 224.5,338.5 C 224.833,338.5 225.167,338.5 225.5,338.5C 225.447,344.196 225.78,349.862 226.5,355.5C 225.71,354.391 225.21,353.058 225,351.5C 224.501,347.179 224.334,342.846 224.5,338.5 Z"/></g>
<g><path style="opacity:0.576" fill="#e1a8a5" d="M 310.5,352.5 C 313.869,353.559 315.536,355.892 315.5,359.5C 314.012,357.033 312.346,354.7 310.5,352.5 Z"/></g>
<g><path style="opacity:1" fill="#74acd0" d="M 64.5,342.5 C 75.5869,350.261 86.9202,357.594 98.5,364.5C 92.6087,363.511 87.2753,361.344 82.5,358C 77.8675,353.3 72.5342,349.466 66.5,346.5C 65.2949,345.423 64.6282,344.09 64.5,342.5 Z"/></g>
<g><path style="opacity:0.373" fill="#e3ada5" d="M 258.5,354.5 C 260.749,355.08 262.415,356.413 263.5,358.5C 261.251,357.92 259.585,356.587 258.5,354.5 Z"/></g>
<g><path style="opacity:0.604" fill="#e7aaac" d="M 263.5,358.5 C 265.404,358.738 266.738,359.738 267.5,361.5C 265.596,361.262 264.262,360.262 263.5,358.5 Z"/></g>
<g><path style="opacity:0.031" fill="#c2e9f5" d="M 37.5,359.5 C 38.9063,359.973 39.573,360.973 39.5,362.5C 38.0937,362.027 37.427,361.027 37.5,359.5 Z"/></g>
<g><path style="opacity:0.958" fill="#6aa6ca" d="M 179.5,332.5 C 177.138,354.818 177.138,377.151 179.5,399.5C 178.408,395.184 177.408,390.851 176.5,386.5C 175.183,373.137 175.183,359.803 176.5,346.5C 177.337,341.804 178.337,337.137 179.5,332.5 Z"/></g>
<g><path style="opacity:0.765" fill="#e1a19e" d="M 267.5,361.5 C 269.404,361.738 270.738,362.738 271.5,364.5C 269.596,364.262 268.262,363.262 267.5,361.5 Z"/></g>
<g><path style="opacity:0.769" fill="#a7cae0" d="M 227.5,359.5 C 228.612,361.599 229.279,363.933 229.5,366.5C 230.791,366.263 231.791,366.596 232.5,367.5C 231.833,367.5 231.167,367.5 230.5,367.5C 229.833,367.5 229.5,367.833 229.5,368.5C 228.833,368.5 228.5,368.167 228.5,367.5C 227.908,364.873 227.575,362.206 227.5,359.5 Z"/></g>
<g><path style="opacity:0.741" fill="#eab0af" d="M 315.5,360.5 C 317.61,364.502 318.943,368.835 319.5,373.5C 317.39,369.498 316.057,365.165 315.5,360.5 Z"/></g>
<g><path style="opacity:0.659" fill="#dea0a0" d="M 271.5,364.5 C 273.404,364.738 274.738,365.738 275.5,367.5C 273.596,367.262 272.262,366.262 271.5,364.5 Z"/></g>
<g><path style="opacity:1" fill="#a44e56" d="M 230.5,367.5 C 231.167,367.5 231.833,367.5 232.5,367.5C 232.5,368.167 232.5,368.833 232.5,369.5C 232.517,371.565 232.85,373.565 233.5,375.5C 231.603,373.302 230.603,370.636 230.5,367.5 Z"/></g>
<g><path style="opacity:0.565" fill="#ebb0ab" d="M 232.5,367.5 C 234.23,368.026 235.564,369.026 236.5,370.5C 235.167,370.167 233.833,369.833 232.5,369.5C 232.5,368.833 232.5,368.167 232.5,367.5 Z"/></g>
<g><path style="opacity:0.525" fill="#e6adab" d="M 275.5,367.5 C 277.749,368.08 279.415,369.413 280.5,371.5C 278.251,370.92 276.585,369.587 275.5,367.5 Z"/></g>
<g><path style="opacity:1" fill="#65a4cc" d="M 124.5,360.5 C 127.518,360.335 130.518,360.502 133.5,361C 135.532,362.675 137.532,364.342 139.5,366C 138.731,371.796 138.231,377.629 138,383.5C 136.644,384.38 135.144,384.714 133.5,384.5C 133.5,383.5 133.5,382.5 133.5,381.5C 129.369,380.099 125.036,379.433 120.5,379.5C 120.719,378.325 120.386,377.325 119.5,376.5C 117.568,375.634 115.568,374.967 113.5,374.5C 111.536,375.473 109.536,375.306 107.5,374C 108.5,373.667 109.5,373.333 110.5,373C 107.216,372.35 104.216,371.184 101.5,369.5C 101.169,367.678 100.502,366.011 99.5,364.5C 111.402,370.568 123.402,376.235 135.5,381.5C 135.56,382.043 135.893,382.376 136.5,382.5C 137.816,376.68 137.816,371.013 136.5,365.5C 132.203,364.345 128.203,362.679 124.5,360.5 Z"/></g>
<g><path style="opacity:0.753" fill="#e5a6a5" d="M 280.5,371.5 C 282.404,371.738 283.738,372.738 284.5,374.5C 282.596,374.262 281.262,373.262 280.5,371.5 Z"/></g>
<g><path style="opacity:0.027" fill="#c4e9f6" d="M 47.5,371.5 C 48.9063,371.973 49.573,372.973 49.5,374.5C 48.0937,374.027 47.427,373.027 47.5,371.5 Z"/></g>
<g><path style="opacity:0.965" fill="#cb7875" d="M 236.5,370.5 C 239.81,372.482 242.81,374.815 245.5,377.5C 242.286,376.612 239.286,375.279 236.5,373.5C 236.5,372.5 236.5,371.5 236.5,370.5 Z"/></g>
<g><path style="opacity:1" fill="#67a1c9" d="M 39.5,362.5 C 41.1667,362.5 42.8333,362.5 44.5,362.5C 44.3433,363.873 44.51,365.207 45,366.5C 51.0446,372.545 57.0446,378.545 63,384.5C 63.49,385.793 63.6567,387.127 63.5,388.5C 58.5,384.167 53.8333,379.5 49.5,374.5C 49.573,372.973 48.9063,371.973 47.5,371.5C 44.1195,369.12 41.4528,366.12 39.5,362.5 Z"/></g>
<g><path style="opacity:0.208" fill="#bce2f4" d="M 136.5,365.5 C 137.816,371.013 137.816,376.68 136.5,382.5C 135.893,382.376 135.56,382.043 135.5,381.5C 136.488,376.36 136.821,371.026 136.5,365.5 Z"/></g>
<g><path style="opacity:1" fill="#757a9e" d="M 230.5,367.5 C 230.603,370.636 231.603,373.302 233.5,375.5C 234.639,378.004 235.306,380.67 235.5,383.5C 231.62,379.386 229.62,374.386 229.5,368.5C 229.5,367.833 229.833,367.5 230.5,367.5 Z"/></g>
<g><path style="opacity:0.62" fill="#e4a0aa" d="M 284.5,374.5 C 286.404,374.738 287.738,375.738 288.5,377.5C 286.596,377.262 285.262,376.262 284.5,374.5 Z"/></g>
<g><path style="opacity:1" fill="#c24143" d="M 306.5,351.5 C 307.833,351.833 309.167,352.167 310.5,352.5C 312.346,354.7 314.012,357.033 315.5,359.5C 315.5,359.833 315.5,360.167 315.5,360.5C 316.057,365.165 317.39,369.498 319.5,373.5C 319.41,376.152 320.076,378.485 321.5,380.5C 321.723,384.162 322.723,387.495 324.5,390.5C 324.723,394.162 325.723,397.495 327.5,400.5C 327.357,402.262 327.691,403.929 328.5,405.5C 328.043,406.298 327.376,406.631 326.5,406.5C 325.738,404.738 324.404,403.738 322.5,403.5C 321.833,402.5 321.167,401.5 320.5,400.5C 322.044,400.703 323.378,401.37 324.5,402.5C 325.585,399.033 324.585,396.199 321.5,394C 322.081,393.107 322.415,392.107 322.5,391C 321.006,386.191 319.673,381.358 318.5,376.5C 317.5,376.5 316.5,376.5 315.5,376.5C 315.834,369.504 314.501,362.837 311.5,356.5C 309.465,355.959 307.465,355.292 305.5,354.5C 307.435,353.787 307.768,352.787 306.5,351.5 Z"/></g>
<g><path style="opacity:0.718" fill="#e7abac" d="M 319.5,373.5 C 320.924,375.515 321.59,377.848 321.5,380.5C 320.076,378.485 319.41,376.152 319.5,373.5 Z"/></g>
<g><path style="opacity:0.651" fill="#e0a0a0" d="M 288.5,377.5 C 290.404,377.738 291.738,378.738 292.5,380.5C 290.596,380.262 289.262,379.262 288.5,377.5 Z"/></g>
<g><path style="opacity:1" fill="#cb6d6a" d="M 245.5,377.5 C 247.389,378.604 249.055,379.937 250.5,381.5C 247.454,381.817 245.787,380.484 245.5,377.5 Z"/></g>
<g><path style="opacity:0.839" fill="#de9592" d="M 292.5,380.5 C 294.404,380.738 295.738,381.738 296.5,383.5C 294.596,383.262 293.262,382.262 292.5,380.5 Z"/></g>
<g><path style="opacity:0.725" fill="#df9691" d="M 250.5,381.5 C 252.23,382.026 253.564,383.026 254.5,384.5C 253.391,384.443 252.391,384.11 251.5,383.5C 250.662,383.158 250.328,382.492 250.5,381.5 Z"/></g>
<g><path style="opacity:0.78" fill="#e2a4a3" d="M 321.5,380.5 C 323.277,383.505 324.277,386.838 324.5,390.5C 322.723,387.495 321.723,384.162 321.5,380.5 Z"/></g>
<g><path style="opacity:0.588" fill="#e6aba8" d="M 296.5,383.5 C 298.749,384.08 300.415,385.413 301.5,387.5C 299.251,386.92 297.585,385.587 296.5,383.5 Z"/></g>
<g><path style="opacity:0.675" fill="#e19b99" d="M 254.5,384.5 C 256.23,385.026 257.564,386.026 258.5,387.5C 256.368,387.446 255.035,386.446 254.5,384.5 Z"/></g>
<g><path style="opacity:0.773" fill="#e4a2a0" d="M 301.5,387.5 C 303.404,387.738 304.738,388.738 305.5,390.5C 303.596,390.262 302.262,389.262 301.5,387.5 Z"/></g>
<g><path style="opacity:0.682" fill="#b2d6e7" d="M 63.5,388.5 C 65.7488,389.08 67.4154,390.413 68.5,392.5C 66.2512,391.92 64.5846,390.587 63.5,388.5 Z"/></g>
<g><path style="opacity:1" fill="#985a70" d="M 236.5,383.5 C 238.245,385.033 239.245,387.033 239.5,389.5C 237.755,387.967 236.755,385.967 236.5,383.5 Z"/></g>
<g><path style="opacity:1" fill="#ad4f5c" d="M 239.5,389.5 C 241.978,391.781 243.978,394.448 245.5,397.5C 244.486,400.514 242.486,402.514 239.5,403.5C 239.833,402.833 240.167,402.167 240.5,401.5C 242.246,400.751 243.246,399.417 243.5,397.5C 241.628,395.09 240.295,392.423 239.5,389.5 Z"/></g>
<g><path style="opacity:1" fill="#c44b49" d="M 251.5,383.5 C 252.391,384.11 253.391,384.443 254.5,384.5C 255.035,386.446 256.368,387.446 258.5,387.5C 260.754,388.124 262.421,389.457 263.5,391.5C 263.833,392.167 264.167,392.833 264.5,393.5C 262.188,392.68 259.854,391.847 257.5,391C 255.179,388.695 253.179,386.195 251.5,383.5 Z"/></g>
<g><path style="opacity:0.667" fill="#e4a09d" d="M 305.5,390.5 C 307.404,390.738 308.738,391.738 309.5,393.5C 307.596,393.262 306.262,392.262 305.5,390.5 Z"/></g>
<g><path style="opacity:1" fill="#5b8bb9" d="M 235.5,383.5 C 235.833,383.5 236.167,383.5 236.5,383.5C 236.755,385.967 237.755,387.967 239.5,389.5C 240.295,392.423 241.628,395.09 243.5,397.5C 243.246,399.417 242.246,400.751 240.5,401.5C 240.167,401.5 239.833,401.5 239.5,401.5C 239.721,400.265 240.388,399.265 241.5,398.5C 240.349,397.269 239.183,397.269 238,398.5C 237.71,393.368 236.876,388.368 235.5,383.5 Z"/></g>
<g><path style="opacity:0.09" fill="#f7cec8" d="M 263.5,391.5 C 265.027,391.427 266.027,392.094 266.5,393.5C 265.833,393.5 265.167,393.5 264.5,393.5C 264.167,392.833 263.833,392.167 263.5,391.5 Z"/></g>
<g><path style="opacity:0.859" fill="#dd9595" d="M 309.5,393.5 C 311.404,393.738 312.738,394.738 313.5,396.5C 311.596,396.262 310.262,395.262 309.5,393.5 Z"/></g>
<g><path style="opacity:0.812" fill="#e39d9b" d="M 324.5,390.5 C 326.277,393.505 327.277,396.838 327.5,400.5C 325.723,397.495 324.723,394.162 324.5,390.5 Z"/></g>
<g><path style="opacity:0.812" fill="#a0cae1" d="M 70.5,394.5 C 72.7488,395.08 74.4154,396.413 75.5,398.5C 73.2512,397.92 71.5846,396.587 70.5,394.5 Z"/></g>
<g><path style="opacity:0.6" fill="#e9abaa" d="M 266.5,393.5 C 268.23,394.026 269.564,395.026 270.5,396.5C 268.368,396.446 267.035,395.446 266.5,393.5 Z"/></g>
<g><path style="opacity:0.275" fill="#bfe2f3" d="M 176.5,386.5 C 177.408,390.851 178.408,395.184 179.5,399.5C 179.5,401.5 179.5,403.5 179.5,405.5C 177.492,399.457 176.492,393.124 176.5,386.5 Z"/></g>
<g><path style="opacity:0.878" fill="#da908d" d="M 313.5,396.5 C 315.404,396.738 316.738,397.738 317.5,399.5C 315.596,399.262 314.262,398.262 313.5,396.5 Z"/></g>
<g><path style="opacity:0.871" fill="#a1c9dd" d="M 75.5,398.5 C 78.0892,399.419 80.0892,401.086 81.5,403.5C 78.9108,402.581 76.9108,400.914 75.5,398.5 Z"/></g>
<g><path style="opacity:0.882" fill="#d89d9d" d="M 317.5,399.5 C 318.609,399.557 319.609,399.89 320.5,400.5C 321.167,401.5 321.833,402.5 322.5,403.5C 320.251,402.92 318.585,401.587 317.5,399.5 Z"/></g>
<g><path style="opacity:0.902" fill="#9bc2dd" d="M 169.5,393.5 C 170.525,396.974 171.192,400.64 171.5,404.5C 170.778,404.082 170.278,403.416 170,402.5C 169.502,399.518 169.335,396.518 169.5,393.5 Z"/></g>
<g><path style="opacity:1" fill="#c9605c" d="M 270.5,396.5 C 273.009,397.921 275.343,399.588 277.5,401.5C 277.5,402.167 277.5,402.833 277.5,403.5C 273.205,403.205 270.872,400.872 270.5,396.5 Z"/></g>
<g><path style="opacity:1" fill="#8f6276" d="M 239.5,401.5 C 239.833,401.5 240.167,401.5 240.5,401.5C 240.167,402.167 239.833,402.833 239.5,403.5C 237.5,404.833 235.5,406.167 233.5,407.5C 234.95,405.077 236.95,403.077 239.5,401.5 Z"/></g>
<g><path style="opacity:0.627" fill="#e3b6b0" d="M 277.5,401.5 C 278.5,401.833 279.167,402.5 279.5,403.5C 278.833,403.5 278.167,403.5 277.5,403.5C 277.5,402.833 277.5,402.167 277.5,401.5 Z"/></g>
<g><path style="opacity:0.773" fill="#dfa09d" d="M 322.5,403.5 C 324.404,403.738 325.738,404.738 326.5,406.5C 324.596,406.262 323.262,405.262 322.5,403.5 Z"/></g>
<g><path style="opacity:1" fill="#74abcf" d="M 81.5,403.5 C 85.8102,403.295 88.4769,405.295 89.5,409.5C 86.4669,407.984 83.8003,405.984 81.5,403.5 Z"/></g>
<g><path style="opacity:0.592" fill="#e4a8a7" d="M 279.5,403.5 C 281.23,404.026 282.564,405.026 283.5,406.5C 281.368,406.446 280.035,405.446 279.5,403.5 Z"/></g>
<g><path style="opacity:0.851" fill="#c88b8d" d="M 327.5,400.5 C 329.074,402.102 329.741,404.102 329.5,406.5C 329.672,407.492 329.338,408.158 328.5,408.5C 327.5,408.167 326.833,407.5 326.5,406.5C 327.376,406.631 328.043,406.298 328.5,405.5C 327.691,403.929 327.357,402.262 327.5,400.5 Z"/></g>
<g><path style="opacity:0.102" fill="#f3e4e5" d="M 329.5,406.5 C 330.797,407.849 330.63,409.182 329,410.5C 328.536,409.906 328.369,409.239 328.5,408.5C 329.338,408.158 329.672,407.492 329.5,406.5 Z"/></g>
<g><path style="opacity:0.773" fill="#d8a198" d="M 232.5,409.5 C 234.027,409.427 235.027,410.094 235.5,411.5C 233.973,411.573 232.973,410.906 232.5,409.5 Z"/></g>
<g><path style="opacity:1" fill="#d68481" d="M 283.5,406.5 C 286.473,408.147 289.14,410.147 291.5,412.5C 287.485,412.086 284.818,410.086 283.5,406.5 Z"/></g>
<g><path style="opacity:0.616" fill="#e3a3a4" d="M 235.5,411.5 C 237.749,412.08 239.415,413.413 240.5,415.5C 238.251,414.92 236.585,413.587 235.5,411.5 Z"/></g>
<g><path style="opacity:0.506" fill="#e7b0b0" d="M 291.5,412.5 C 293.23,413.026 294.564,414.026 295.5,415.5C 293.368,415.446 292.035,414.446 291.5,412.5 Z"/></g>
<g><path style="opacity:0.831" fill="#dd989a" d="M 240.5,415.5 C 242.404,415.738 243.738,416.738 244.5,418.5C 242.596,418.262 241.262,417.262 240.5,415.5 Z"/></g>
<g><path style="opacity:1" fill="#78b0d5" d="M 230.5,409.5 C 225.786,413.546 220.786,417.212 215.5,420.5C 215.67,419.178 215.337,418.011 214.5,417C 216.473,416.505 218.473,416.338 220.5,416.5C 220.36,414.876 221.027,413.71 222.5,413C 222.167,412.667 221.833,412.333 221.5,412C 223.167,411.667 224.833,411.333 226.5,411C 225.5,410.667 224.5,410.333 223.5,410C 225.81,409.503 228.143,409.337 230.5,409.5 Z"/></g>
<g><path style="opacity:1" fill="#579ccb" d="M 89.5,409.5 C 93.1834,410.675 96.85,410.675 100.5,409.5C 100.215,411.288 100.548,412.955 101.5,414.5C 103.336,415.796 105.336,416.63 107.5,417C 106.833,417.333 106.167,417.667 105.5,418C 107.274,419.756 108.941,419.756 110.5,418C 116.484,417.107 116.817,418.441 111.5,422C 114.47,424.464 117.803,426.298 121.5,427.5C 123.261,428.917 124.594,430.583 125.5,432.5C 112.475,426.328 100.475,418.661 89.5,409.5 Z"/></g>
<g><path style="opacity:0.878" fill="#db9292" d="M 244.5,418.5 C 246.404,418.738 247.738,419.738 248.5,421.5C 246.596,421.262 245.262,420.262 244.5,418.5 Z"/></g>
<g><path style="opacity:1" fill="#d4807e" d="M 295.5,415.5 C 298.81,417.482 301.81,419.815 304.5,422.5C 301.598,422.519 298.931,421.185 296.5,418.5C 295.873,417.583 295.539,416.583 295.5,415.5 Z"/></g>
<g><path style="opacity:0.553" fill="#a1cbe1" d="M 181.5,415.5 C 182.649,415.791 183.316,416.624 183.5,418C 184.077,420.137 184.41,422.304 184.5,424.5C 182.928,421.785 181.928,418.785 181.5,415.5 Z"/></g>
<g><path style="opacity:0.863" fill="#e19996" d="M 248.5,421.5 C 250.749,422.08 252.415,423.413 253.5,425.5C 251.251,424.92 249.585,423.587 248.5,421.5 Z"/></g>
<g><path style="opacity:1" fill="#cd3d3d" d="M 232.5,369.5 C 233.833,369.833 235.167,370.167 236.5,370.5C 236.5,371.5 236.5,372.5 236.5,373.5C 239.286,375.279 242.286,376.612 245.5,377.5C 245.787,380.484 247.454,381.817 250.5,381.5C 250.328,382.492 250.662,383.158 251.5,383.5C 253.179,386.195 255.179,388.695 257.5,391C 259.854,391.847 262.188,392.68 264.5,393.5C 265.167,393.5 265.833,393.5 266.5,393.5C 267.035,395.446 268.368,396.446 270.5,396.5C 270.872,400.872 273.205,403.205 277.5,403.5C 278.167,403.5 278.833,403.5 279.5,403.5C 280.035,405.446 281.368,406.446 283.5,406.5C 284.818,410.086 287.485,412.086 291.5,412.5C 292.035,414.446 293.368,415.446 295.5,415.5C 295.539,416.583 295.873,417.583 296.5,418.5C 298.931,421.185 301.598,422.519 304.5,422.5C 305.035,424.446 306.368,425.446 308.5,425.5C 308.709,426.922 309.209,428.255 310,429.5C 310.986,428.829 312.153,428.829 313.5,429.5C 315.317,431.012 316.317,433.012 316.5,435.5C 318.929,435.884 321.263,436.551 323.5,437.5C 324.492,437.328 325.158,437.662 325.5,438.5C 325.968,441.966 327.968,443.632 331.5,443.5C 332.492,443.328 333.158,443.662 333.5,444.5C 333.539,445.583 333.873,446.583 334.5,447.5C 337.158,449.44 339.825,451.44 342.5,453.5C 343.136,455.78 344.136,457.78 345.5,459.5C 345.723,463.162 346.723,466.495 348.5,469.5C 348.5,470.833 348.5,472.167 348.5,473.5C 349.589,478.103 350.423,482.77 351,487.5C 348.676,488.719 346.509,490.052 344.5,491.5C 342.823,490.813 341.156,490.146 339.5,489.5C 338.833,489.5 338.167,489.5 337.5,489.5C 336.738,487.738 335.404,486.738 333.5,486.5C 332.738,484.738 331.404,483.738 329.5,483.5C 328.738,481.738 327.404,480.738 325.5,480.5C 324.738,478.738 323.404,477.738 321.5,477.5C 320.415,475.413 318.749,474.08 316.5,473.5C 315.738,471.738 314.404,470.738 312.5,470.5C 311.738,468.738 310.404,467.738 308.5,467.5C 307.738,465.738 306.404,464.738 304.5,464.5C 303.738,462.738 302.404,461.738 300.5,461.5C 299.415,459.413 297.749,458.08 295.5,457.5C 294.738,455.738 293.404,454.738 291.5,454.5C 290.738,452.738 289.404,451.738 287.5,451.5C 286.415,449.413 284.749,448.08 282.5,447.5C 281.738,445.738 280.404,444.738 278.5,444.5C 277.738,442.738 276.404,441.738 274.5,441.5C 273.738,439.738 272.404,438.738 270.5,438.5C 269.738,436.738 268.404,435.738 266.5,435.5C 265.415,433.413 263.749,432.08 261.5,431.5C 260.738,429.738 259.404,428.738 257.5,428.5C 256.738,426.738 255.404,425.738 253.5,425.5C 252.415,423.413 250.749,422.08 248.5,421.5C 247.738,419.738 246.404,418.738 244.5,418.5C 243.738,416.738 242.404,415.738 240.5,415.5C 239.415,413.413 237.749,412.08 235.5,411.5C 235.027,410.094 234.027,409.427 232.5,409.5C 230.969,408.075 231.302,407.409 233.5,407.5C 235.5,406.167 237.5,404.833 239.5,403.5C 242.486,402.514 244.486,400.514 245.5,397.5C 243.978,394.448 241.978,391.781 239.5,389.5C 239.245,387.033 238.245,385.033 236.5,383.5C 236.167,383.5 235.833,383.5 235.5,383.5C 235.306,380.67 234.639,378.004 233.5,375.5C 232.85,373.565 232.517,371.565 232.5,369.5 Z"/></g>
<g><path style="opacity:0.761" fill="#a8cfe4" d="M 175.5,421.5 C 177.538,425.94 179.204,430.607 180.5,435.5C 178.456,432.377 176.789,429.044 175.5,425.5C 175.5,424.167 175.5,422.833 175.5,421.5 Z"/></g>
<g><path style="opacity:0.518" fill="#e5aba9" d="M 304.5,422.5 C 306.23,423.026 307.564,424.026 308.5,425.5C 306.368,425.446 305.035,424.446 304.5,422.5 Z"/></g>
<g><path style="opacity:0.792" fill="#e7a4a2" d="M 253.5,425.5 C 255.404,425.738 256.738,426.738 257.5,428.5C 255.596,428.262 254.262,427.262 253.5,425.5 Z"/></g>
<g><path style="opacity:0.529" fill="#96c7dc" d="M 184.5,424.5 C 187.075,426.845 188.075,429.845 187.5,433.5C 185.747,430.854 184.747,427.854 184.5,424.5 Z"/></g>
<g><path style="opacity:0.827" fill="#de9c98" d="M 257.5,428.5 C 259.404,428.738 260.738,429.738 261.5,431.5C 259.596,431.262 258.262,430.262 257.5,428.5 Z"/></g>
<g><path style="opacity:1" fill="#d67d7d" d="M 308.5,425.5 C 310.389,426.604 312.055,427.937 313.5,429.5C 312.153,428.829 310.986,428.829 310,429.5C 309.209,428.255 308.709,426.922 308.5,425.5 Z"/></g>
<g><path style="opacity:1" fill="#6fa9d0" d="M 207.5,426.5 C 202.94,431.125 197.94,435.291 192.5,439C 189.42,438.789 187.753,436.956 187.5,433.5C 188.873,433.343 190.207,433.51 191.5,434C 190.391,435.813 191.058,436.646 193.5,436.5C 193.5,435.167 193.5,433.833 193.5,432.5C 194.873,432.657 196.207,432.49 197.5,432C 196.304,431.346 196.304,430.846 197.5,430.5C 199.214,431.609 199.881,430.942 199.5,428.5C 202.025,427.36 204.692,426.693 207.5,426.5 Z"/></g>
<g><path style="opacity:0.518" fill="#e5adab" d="M 261.5,431.5 C 263.749,432.08 265.415,433.413 266.5,435.5C 264.251,434.92 262.585,433.587 261.5,431.5 Z"/></g>
<g><path style="opacity:0.204" fill="#c8e5f6" d="M 127.5,433.5 C 129.027,433.427 130.027,434.094 130.5,435.5C 128.973,435.573 127.973,434.906 127.5,433.5 Z"/></g>
<g><path style="opacity:1" fill="#cc7a78" d="M 313.5,429.5 C 317.238,431.697 320.571,434.364 323.5,437.5C 321.263,436.551 318.929,435.884 316.5,435.5C 316.317,433.012 315.317,431.012 313.5,429.5 Z"/></g>
<g><path style="opacity:0.855" fill="#9ecce5" d="M 130.5,435.5 C 131.873,435.343 133.207,435.51 134.5,436C 136.311,437.041 136.645,438.207 135.5,439.5C 134.328,437.461 132.662,436.128 130.5,435.5 Z"/></g>
<g><path style="opacity:0.741" fill="#e3a9a6" d="M 266.5,435.5 C 268.404,435.738 269.738,436.738 270.5,438.5C 268.596,438.262 267.262,437.262 266.5,435.5 Z"/></g>
<g><path style="opacity:0.604" fill="#e5aaa8" d="M 270.5,438.5 C 272.404,438.738 273.738,439.738 274.5,441.5C 272.596,441.262 271.262,440.262 270.5,438.5 Z"/></g>
<g><path style="opacity:1" fill="#cd7874" d="M 325.5,438.5 C 327.909,439.701 329.909,441.367 331.5,443.5C 327.968,443.632 325.968,441.966 325.5,438.5 Z"/></g>
<g><path style="opacity:0.627" fill="#e1a89d" d="M 274.5,441.5 C 276.404,441.738 277.738,442.738 278.5,444.5C 276.596,444.262 275.262,443.262 274.5,441.5 Z"/></g>
<g><path style="opacity:0.984" fill="#81b3cf" d="M 180.5,435.5 C 181.966,438.059 182.966,440.892 183.5,444C 183.316,445.376 182.649,446.209 181.5,446.5C 181.448,442.802 181.114,439.135 180.5,435.5 Z"/></g>
<g><path style="opacity:0.8" fill="#e09797" d="M 278.5,444.5 C 280.404,444.738 281.738,445.738 282.5,447.5C 280.596,447.262 279.262,446.262 278.5,444.5 Z"/></g>
<g><path style="opacity:1" fill="#8fc1dc" d="M 180.5,447.5 C 179.738,449.262 178.404,450.262 176.5,450.5C 177.598,449.603 177.598,448.77 176.5,448C 177.793,447.51 179.127,447.343 180.5,447.5 Z"/></g>
<g><path style="opacity:0.361" fill="#e7aaab" d="M 282.5,447.5 C 284.749,448.08 286.415,449.413 287.5,451.5C 285.251,450.92 283.585,449.587 282.5,447.5 Z"/></g>
<g><path style="opacity:0.757" fill="#e3a3a7" d="M 287.5,451.5 C 289.404,451.738 290.738,452.738 291.5,454.5C 289.596,454.262 288.262,453.262 287.5,451.5 Z"/></g>
<g><path style="opacity:1" fill="#66a8cf" d="M 176.5,450.5 C 173.071,454.262 169.071,457.262 164.5,459.5C 163.492,454.333 165.325,452.666 170,454.5C 170.49,453.207 170.657,451.873 170.5,450.5C 172.5,450.5 174.5,450.5 176.5,450.5 Z"/></g>
<g><path style="opacity:0.933" fill="#d98e8d" d="M 333.5,444.5 C 337.124,446.951 340.624,449.617 344,452.5C 344.977,454.74 345.477,457.073 345.5,459.5C 344.136,457.78 343.136,455.78 342.5,453.5C 339.825,451.44 337.158,449.44 334.5,447.5C 333.873,446.583 333.539,445.583 333.5,444.5 Z"/></g>
<g><path style="opacity:0.557" fill="#abcfe1" d="M 127.5,447.5 C 125.234,451.436 122.234,454.769 118.5,457.5C 120.766,453.564 123.766,450.231 127.5,447.5 Z"/></g>
<g><path style="opacity:0.635" fill="#e3a1a2" d="M 291.5,454.5 C 293.404,454.738 294.738,455.738 295.5,457.5C 293.596,457.262 292.262,456.262 291.5,454.5 Z"/></g>
<g><path style="opacity:0.51" fill="#eaafae" d="M 295.5,457.5 C 297.749,458.08 299.415,459.413 300.5,461.5C 298.251,460.92 296.585,459.587 295.5,457.5 Z"/></g>
<g><path style="opacity:0.718" fill="#e8acab" d="M 300.5,461.5 C 302.404,461.738 303.738,462.738 304.5,464.5C 302.596,464.262 301.262,463.262 300.5,461.5 Z"/></g>
<g><path style="opacity:1" fill="#65a4cf" d="M 164.5,459.5 C 164.167,460.5 163.5,461.167 162.5,461.5C 160.973,461.427 159.973,462.094 159.5,463.5C 157.909,465.633 155.909,467.299 153.5,468.5C 151.776,464 153.442,462 158.5,462.5C 158.5,461.5 158.5,460.5 158.5,459.5C 160.5,459.5 162.5,459.5 164.5,459.5 Z"/></g>
<g><path style="opacity:0.008" fill="#d2e9f5" d="M 162.5,461.5 C 162.027,462.906 161.027,463.573 159.5,463.5C 159.973,462.094 160.973,461.427 162.5,461.5 Z"/></g>
<g><path style="opacity:0.792" fill="#e2a6a0" d="M 345.5,459.5 C 347.277,462.505 348.277,465.838 348.5,469.5C 346.723,466.495 345.723,463.162 345.5,459.5 Z"/></g>
<g><path style="opacity:0.588" fill="#e5aeac" d="M 304.5,464.5 C 306.404,464.738 307.738,465.738 308.5,467.5C 306.596,467.262 305.262,466.262 304.5,464.5 Z"/></g>
<g><path style="opacity:0.816" fill="#dca2a4" d="M 308.5,467.5 C 310.404,467.738 311.738,468.738 312.5,470.5C 310.596,470.262 309.262,469.262 308.5,467.5 Z"/></g>
<g><path style="opacity:0.792" fill="#e69a9e" d="M 312.5,470.5 C 314.404,470.738 315.738,471.738 316.5,473.5C 314.596,473.262 313.262,472.262 312.5,470.5 Z"/></g>
<g><path style="opacity:0.82" fill="#e9a6a4" d="M 348.5,469.5 C 350.405,473.216 351.739,477.216 352.5,481.5C 350.975,478.921 349.641,476.254 348.5,473.5C 348.5,472.167 348.5,470.833 348.5,469.5 Z"/></g>
<g><path style="opacity:0.702" fill="#abd3e6" d="M 107.5,468.5 C 107.5,469.167 107.5,469.833 107.5,470.5C 104.369,473.129 101.369,475.962 98.5,479C 99.4438,481.719 99.7771,484.552 99.5,487.5C 98.2568,484.367 97.7568,481.033 98,477.5C 101.036,474.296 104.203,471.296 107.5,468.5 Z"/></g>
<g><path style="opacity:1" fill="#529ac9" d="M 107.5,470.5 C 107.297,472.044 106.63,473.378 105.5,474.5C 106.687,475.519 107.687,476.686 108.5,478C 106.924,478.44 105.59,479.273 104.5,480.5C 102.538,479.146 101.538,479.813 101.5,482.5C 102.928,488.759 104.095,495.093 105,501.5C 108.703,500.529 111.869,498.696 114.5,496C 115.793,495.51 117.127,495.343 118.5,495.5C 114.386,499.064 110.052,502.397 105.5,505.5C 104.25,505.423 103.417,504.756 103,503.5C 102.689,499.91 101.856,496.577 100.5,493.5C 99.6586,491.621 99.3253,489.621 99.5,487.5C 99.7771,484.552 99.4438,481.719 98.5,479C 101.369,475.962 104.369,473.129 107.5,470.5 Z"/></g>
<g><path style="opacity:0.553" fill="#e9adac" d="M 316.5,473.5 C 318.749,474.08 320.415,475.413 321.5,477.5C 319.251,476.92 317.585,475.587 316.5,473.5 Z"/></g>
<g><path style="opacity:0.753" fill="#dfa6a5" d="M 321.5,477.5 C 323.404,477.738 324.738,478.738 325.5,480.5C 323.596,480.262 322.262,479.262 321.5,477.5 Z"/></g>
<g><path style="opacity:0.792" fill="#e29f9c" d="M 325.5,480.5 C 327.404,480.738 328.738,481.738 329.5,483.5C 327.596,483.262 326.262,482.262 325.5,480.5 Z"/></g>
<g><path style="opacity:1" fill="#68a5cd" d="M 153.5,468.5 C 144.051,476.065 134.385,483.398 124.5,490.5C 124.5,489.5 124.5,488.5 124.5,487.5C 126.58,486.956 128.58,486.122 130.5,485C 129.663,483.989 129.33,482.822 129.5,481.5C 131.167,481.5 132.833,481.5 134.5,481.5C 134.5,480.167 134.5,478.833 134.5,477.5C 135.552,477.649 136.552,477.483 137.5,477C 139.473,473.506 142.473,472.006 146.5,472.5C 146.281,471.325 146.614,470.325 147.5,469.5C 149.409,468.652 151.409,468.318 153.5,468.5 Z"/></g>
<g><path style="opacity:0.812" fill="#e09e9c" d="M 329.5,483.5 C 331.404,483.738 332.738,484.738 333.5,486.5C 331.596,486.262 330.262,485.262 329.5,483.5 Z"/></g>
<g><path style="opacity:0.776" fill="#e6a5a3" d="M 352.5,482.5 C 354.277,485.505 355.277,488.838 355.5,492.5C 353.723,489.495 352.723,486.162 352.5,482.5 Z"/></g>
<g><path style="opacity:0.894" fill="#da9392" d="M 333.5,486.5 C 335.404,486.738 336.738,487.738 337.5,489.5C 335.596,489.262 334.262,488.262 333.5,486.5 Z"/></g>
<g><path style="opacity:1" fill="#c44142" d="M 348.5,473.5 C 349.641,476.254 350.975,478.921 352.5,481.5C 352.5,481.833 352.5,482.167 352.5,482.5C 352.723,486.162 353.723,489.495 355.5,492.5C 355.132,496.044 356.132,499.044 358.5,501.5C 358.649,502.552 358.483,503.552 358,504.5C 357.329,503.748 356.496,503.414 355.5,503.5C 354.415,501.413 352.749,500.08 350.5,499.5C 350.027,498.094 349.027,497.427 347.5,497.5C 346.5,497.167 345.833,496.5 345.5,495.5C 345.027,494.094 344.027,493.427 342.5,493.5C 341.5,492.167 340.5,490.833 339.5,489.5C 341.156,490.146 342.823,490.813 344.5,491.5C 346.509,490.052 348.676,488.719 351,487.5C 350.423,482.77 349.589,478.103 348.5,473.5 Z"/></g>
<g><path style="opacity:0.541" fill="#e4acac" d="M 337.5,489.5 C 338.167,489.5 338.833,489.5 339.5,489.5C 340.5,490.833 341.5,492.167 342.5,493.5C 340.251,492.92 338.585,491.587 337.5,489.5 Z"/></g>
<g><path style="opacity:0.765" fill="#da9b96" d="M 342.5,493.5 C 344.027,493.427 345.027,494.094 345.5,495.5C 343.973,495.573 342.973,494.906 342.5,493.5 Z"/></g>
<g><path style="opacity:0.459" fill="#e7aeae" d="M 347.5,497.5 C 349.027,497.427 350.027,498.094 350.5,499.5C 348.973,499.573 347.973,498.906 347.5,497.5 Z"/></g>
<g><path style="opacity:0.714" fill="#e19c9d" d="M 355.5,492.5 C 357.072,495.215 358.072,498.215 358.5,501.5C 356.132,499.044 355.132,496.044 355.5,492.5 Z"/></g>
<g><path style="opacity:0.827" fill="#e1aba0" d="M 350.5,499.5 C 352.749,500.08 354.415,501.413 355.5,503.5C 353.251,502.92 351.585,501.587 350.5,499.5 Z"/></g>
<g><path style="opacity:0.243" fill="#bbdeee" d="M 100.5,493.5 C 101.856,496.577 102.689,499.91 103,503.5C 103.417,504.756 104.25,505.423 105.5,505.5C 104.306,508.018 103.14,508.018 102,505.5C 101.358,501.509 100.858,497.509 100.5,493.5 Z"/></g>
<g><path style="opacity:0.004" fill="#fefffe" d="M 355.5,504.5 C 354.833,505.167 354.833,505.167 355.5,504.5 Z"/></g>
<g><path style="opacity:0.588" fill="#e2b4b6" d="M 358.5,501.5 C 361.593,506.407 360.593,507.407 355.5,504.5C 355.5,504.167 355.5,503.833 355.5,503.5C 356.496,503.414 357.329,503.748 358,504.5C 358.483,503.552 358.649,502.552 358.5,501.5 Z"/></g>
<g><path style="opacity:0.008" fill="#fefffe" d="M 356.5,506.5 C 357.833,507.167 357.833,507.167 356.5,506.5 Z"/></g>
</svg>
